<?xml version="1.0" encoding="UTF-8" standalone="no"?>
<!DOCTYPE svg PUBLIC "-//W3C//DTD SVG 1.1//EN" "http://www.w3.org/Graphics/SVG/1.1/DTD/svg11.dtd">
<svg width="100%" height="100%" viewBox="0 0 2088 2084" version="1.1" xmlns="http://www.w3.org/2000/svg" xmlns:xlink="http://www.w3.org/1999/xlink" xml:space="preserve" xmlns:serif="http://www.serif.com/" style="fill-rule:evenodd;clip-rule:evenodd;stroke-linejoin:round;stroke-miterlimit:2;">
    <g transform="matrix(4.16667,0,0,4.16667,0,0)">
        <rect x="0" y="0.01" width="500.009" height="499.99" style="fill:white;fill-rule:nonzero;"/>
        <path d="M448.049,389.997C448.049,399.66 357.959,407.494 246.828,407.494C135.697,407.494 45.607,399.66 45.607,389.997C45.607,380.333 135.697,372.499 246.828,372.499C357.959,372.499 448.049,380.333 448.049,389.997Z" style="fill:rgb(189,203,232);fill-rule:nonzero;"/>
        <path d="M155.65,166.042C157.312,167.213 157.634,169.697 160.742,170.332C157.639,171.086 157.211,173.482 155.685,174.871C155.628,174.579 155.572,174.287 155.515,173.994C155.4,173.77 155.285,173.546 155.171,173.322C155.171,173.322 155.235,173.299 155.235,173.3C154.804,171.898 153.929,170.988 152.43,170.769C152.373,170.507 152.316,170.244 152.257,169.982C154.449,169.569 155.482,168.161 155.654,166.016L155.65,166.042Z" style="fill:rgb(228,228,233);fill-rule:nonzero;"/>
        <path d="M250.767,53.221C248.44,53.983 247.7,55.729 246.864,57.599C246.509,55.563 245.615,54.118 243.573,53.278C245.369,52.307 246.581,51.036 246.863,48.589C247.604,50.899 248.624,52.409 250.767,53.221Z" style="fill:rgb(228,228,233);fill-rule:nonzero;"/>
        <path d="M191.444,103.861C191.646,103.433 192.158,102.992 191.39,102.608C192.517,101.782 193.08,100.611 193.488,98.665C194.217,100.912 195.118,102.439 197.405,103.18C195.223,104.09 194.191,105.443 193.628,108.072C193.087,106.001 192.524,104.758 191.444,103.861Z" style="fill:rgb(228,228,233);fill-rule:nonzero;"/>
        <path d="M188.775,279.191C189.346,281.796 191.159,283.202 194.016,284.25C190.384,285.339 188.963,287.964 188.008,291.31C187.724,289.806 187.551,288.662 186.891,287.677C186.255,286.229 184.9,285.771 183.579,285.257C183.027,285.043 182.714,284.531 182.719,284.018C182.728,282.971 183.465,283.778 183.844,283.65C186.634,282.705 187.457,280.324 188.013,277.454C188.355,278.234 188.565,278.712 188.775,279.191Z" style="fill:rgb(228,228,233);fill-rule:nonzero;"/>
        <path d="M218.796,141.298C215.506,142.052 214.524,144.712 213.708,147.584C213.044,146.062 213.072,144.322 211.701,143.233C211.429,142.935 211.159,142.635 210.888,142.337C210.443,141.754 209.858,141.429 209.123,141.381C208.632,141.223 208.14,141.066 207.649,140.908L207.731,140.769C207.731,140.769 207.599,140.674 207.599,140.672C208.106,140.52 208.613,140.37 209.119,140.22C210.058,140.132 210.754,139.632 211.324,138.917C211.514,138.66 211.704,138.404 211.894,138.147C211.894,138.147 211.868,138.209 211.867,138.208C212.078,137.841 212.288,137.474 212.499,137.107C212.499,137.107 212.443,137.157 212.443,137.156C212.996,136.67 213.12,136.023 213.126,135.332C213.277,135.019 213.428,134.707 213.639,134.269C214.404,135.633 214.321,137.458 215.907,138.27L215.946,138.309C216.065,140.098 218.71,139.477 218.796,141.298Z" style="fill:rgb(228,228,233);fill-rule:nonzero;"/>
        <path d="M293.129,100.534C292.851,100.971 292.524,101.384 292.308,101.85C292.093,102.315 291.99,102.831 291.714,103.727C290.728,101.604 290.466,99.374 288.382,98.401C288.121,98.008 287.735,97.912 287.296,97.941L287.34,97.969C287.858,97.45 285.16,97.61 287.104,96.707C289.026,95.815 290.482,94.436 290.598,92.109C291.074,91.962 291.203,91.619 291.135,91.163C291.484,91.154 291.916,91.089 292.003,91.533C292.59,94.556 294.804,96.082 297.297,97.362C295.52,97.91 294.336,99.237 293.129,100.534Z" style="fill:rgb(228,228,233);fill-rule:nonzero;"/>
        <path d="M173.575,249.003C173.124,248.865 172.826,248.601 172.826,248.093C176.14,247.708 177.162,245.173 178.123,241.896C179.146,245.233 180.577,247.632 184.296,248.397C180.88,249.547 179.065,251.364 178.603,254.351C177.94,254.859 177.94,254.859 177.498,253.593C177.119,251.27 175.831,249.723 173.575,249.003Z" style="fill:rgb(228,228,233);fill-rule:nonzero;"/>
        <path d="M291.061,186.885C288.389,187.723 287.801,190.116 286.902,192.615C285.323,190.093 285.075,186.509 280.964,186.371C284.554,185.3 286.198,182.954 286.765,178.995C287.82,182.605 289.044,185.274 292.521,185.836C292.034,186.186 291.548,186.535 291.061,186.885Z" style="fill:rgb(228,228,233);fill-rule:nonzero;"/>
        <path d="M212.543,219.661C212.231,220.387 211.92,221.114 211.511,222.067C210.852,218.884 209.592,216.381 205.86,215.392C207.646,214.644 209.106,214.159 209.858,212.759C210.927,211.733 211.028,210.267 211.608,208.708C212.433,211.826 213.88,214.182 217.238,215.314C214.959,216.359 213.218,217.489 212.543,219.661Z" style="fill:rgb(228,228,233);fill-rule:nonzero;"/>
        <path d="M244.042,201.177C241.576,202.231 240.448,203.746 239.695,206.442C238.989,203.822 238.11,202.118 235.322,201.274C238.06,200.312 239.159,198.737 239.667,196.537C240.349,198.687 241.48,200.287 244.042,201.177Z" style="fill:rgb(228,228,233);fill-rule:nonzero;"/>
        <path d="M283.648,140.436C283.492,140.978 283.062,141.24 282.601,141.468C280.883,142.155 280.47,143.886 279.617,145.307C279.34,144.905 279.098,144.556 278.857,144.208C278.746,142.286 277.219,141.654 275.494,140.753C277.932,139.866 279.26,138.301 279.386,135.883C279.475,135.798 279.546,135.702 279.6,135.592C280.164,137.862 281.044,139.869 283.648,140.436Z" style="fill:rgb(228,228,233);fill-rule:nonzero;"/>
        <path d="M333.915,235.824C335.125,234.878 334.799,233.196 335.751,231.905C336.409,235.124 337.958,237.434 341.43,238.428C338.652,239.548 336.704,241.122 336.176,243.951C335.759,245.084 335.357,245.077 335.13,243.891C334.592,241.092 332.842,239.44 330.09,238.549C331.554,237.768 333.173,237.386 333.915,235.824Z" style="fill:rgb(228,228,233);fill-rule:nonzero;"/>
        <path d="M314.382,267.006C311.639,268 310.61,269.596 309.765,272.11C309.034,269.685 308.146,267.924 305.418,267.127C308.027,266.214 309.233,264.652 309.685,261.62C310.504,264.437 311.46,266.179 314.382,267.006Z" style="fill:rgb(228,228,233);fill-rule:nonzero;"/>
        <path d="M192.418,183.363C189.895,184.268 188.835,186.06 188.031,188.635C187.507,185.916 186.421,184.143 183.614,183.366C186.426,182.589 187.56,180.912 188.006,178.238C188.845,180.667 189.899,182.477 192.418,183.363Z" style="fill:rgb(228,228,233);fill-rule:nonzero;"/>
        <path d="M287.789,221.984C289.807,221.031 291.175,219.978 291.527,217.848C292.291,219.612 293.199,221.048 295.333,221.778C293.343,222.774 292.224,224.033 291.629,226.618C290.939,224.091 290.174,222.46 287.789,221.984Z" style="fill:rgb(228,228,233);fill-rule:nonzero;"/>
        <path d="M229.239,284.51C229.239,284.51 229.243,284.52 229.244,284.518C227.295,284.998 226.386,286.464 225.657,289.156C225.111,286.594 224.352,285.078 222.013,284.397C223.959,283.44 225.131,282.264 225.67,280.406C226.28,282.393 227.853,283.366 229.239,284.51Z" style="fill:rgb(228,228,233);fill-rule:nonzero;"/>
        <path d="M248.443,159.602C249.261,161.691 250.075,163.142 252.704,163.781C250.188,164.512 249.232,165.913 248.529,168.028C247.689,166.171 247.099,164.46 244.271,163.96C246.822,163.18 247.783,161.809 248.443,159.602Z" style="fill:rgb(228,228,233);fill-rule:nonzero;"/>
        <path d="M251.708,332.368C251.227,330.674 249.12,330.524 248.483,328.976C250.995,328.496 251.88,326.687 252.263,324.196C253.222,326.321 254.004,328.421 256.971,329.215C254.304,330.155 253.26,331.834 252.5,334.104C252.125,333.28 251.916,332.824 251.708,332.368Z" style="fill:rgb(228,228,233);fill-rule:nonzero;"/>
        <path d="M256.308,257.224C256.157,257.622 256.008,258.021 255.644,258.984C254.862,255.402 253.605,252.756 249.44,251.987C253.427,251.157 254.922,248.843 255.675,245.658C256.536,248.659 258.163,250.889 261.086,251.963C261.04,252.037 261.002,252.121 260.946,252.186C260.887,252.251 260.808,252.298 260.739,252.353C258.292,253.091 256.937,254.826 256.308,257.224Z" style="fill:rgb(228,228,233);fill-rule:nonzero;"/>
        <path d="M342.419,205.525C342.451,203.092 340.169,202.376 338.96,200.864C341.433,200.537 342.087,198.597 342.762,196.35C343.596,198.451 344.444,200.301 347.132,201.125C344.376,201.987 344.435,204.621 342.747,205.875C342.728,205.889 342.617,205.801 342.565,205.744C342.507,205.68 342.467,205.599 342.419,205.525Z" style="fill:rgb(228,228,233);fill-rule:nonzero;"/>
        <path d="M304.203,312.415C303.722,309.421 302.61,307.755 299.935,306.9C302.609,306.111 303.758,304.458 304.199,301.663C304.97,304.265 306.062,306.03 308.655,306.887C306.053,307.864 304.971,309.622 304.203,312.415Z" style="fill:rgb(228,228,233);fill-rule:nonzero;"/>
        <path d="M173.256,152.586C174.906,152.016 174.429,149.887 175.799,149.111C176.564,147.924 177.697,147.305 179.04,147.012C178.978,146.074 177.981,146.168 177.539,145.649C175.024,144.62 174.522,142.171 173.595,139.442C173.027,143.32 171.483,145.805 167.384,146.696C171.162,147.554 172.817,149.528 173.256,152.586Z" style="fill:rgb(189,203,232);fill-rule:nonzero;"/>
        <path d="M142.112,210.764C141.851,211.362 141.68,211.752 141.51,212.142C141.029,213.863 139.638,214.662 138.012,215.395C140.898,215.775 141.129,218.457 142.535,220.04C142.814,218.559 143.262,217.183 144.762,216.463C144.934,216.322 145.107,216.183 145.279,216.043C145.657,215.888 146.036,215.734 146.414,215.58C146.34,215.335 146.264,215.091 146.189,214.847C143.671,214.774 143.397,212.294 142.112,210.764Z" style="fill:rgb(189,203,232);fill-rule:nonzero;"/>
        <path d="M229.17,74.647C230.11,72.355 231.133,70.546 233.856,69.571C230.984,68.823 229.984,67.011 229.216,64.552C228.581,67.087 227.704,68.96 225.073,69.654C227.688,70.271 228.423,72.272 229.17,74.647Z" style="fill:rgb(189,203,232);fill-rule:nonzero;"/>
        <path d="M188.281,108.189C188.889,105.941 189.698,104.508 191.444,103.861C191.646,103.433 192.158,102.992 191.39,102.608C189.313,101.969 188.922,100 188.008,98.148C187.516,100.541 186.581,102.406 184.146,103.274C186.566,104.017 187.201,106.021 188.281,108.189Z" style="fill:rgb(189,203,232);fill-rule:nonzero;"/>
        <path d="M309.765,272.11C309.034,269.685 308.146,267.924 305.418,267.127C308.026,266.214 309.233,264.652 309.685,261.62C310.503,264.437 311.46,266.179 314.382,267.006C311.639,268 310.61,269.596 309.765,272.11ZM291.629,226.618C290.939,224.091 290.174,222.46 287.789,221.984C289.807,221.031 291.175,219.978 291.527,217.848C292.291,219.612 293.199,221.048 295.333,221.778C293.343,222.774 292.224,224.033 291.629,226.618ZM188.031,188.635C187.507,185.916 186.422,184.143 183.614,183.366C186.426,182.589 187.56,180.912 188.005,178.238C188.845,180.667 189.899,182.477 192.418,183.363C189.895,184.268 188.835,186.06 188.031,188.635ZM248.443,159.602C249.261,161.691 250.075,163.142 252.704,163.781C250.189,164.512 249.232,165.913 248.529,168.028C247.689,166.171 247.099,164.46 244.271,163.96C246.822,163.18 247.783,161.809 248.443,159.602ZM335.13,243.891C334.592,241.092 332.842,239.44 330.09,238.549C331.554,237.768 333.173,237.386 333.915,235.824C331.052,230.163 327.727,224.862 322.741,220.756C314.844,214.252 305.757,210.966 295.596,210.475C294.976,210.445 294.358,210.38 293.739,210.332C288.97,210.628 284.213,210.839 279.526,212.032C274.55,213.3 269.598,214.626 264.837,216.532C255.591,220.235 246.548,224.572 236.613,226.176C227.678,227.617 219.118,227.174 212.543,219.661C212.232,220.387 211.92,221.113 211.511,222.067C210.852,218.884 209.592,216.381 205.86,215.392C207.646,214.644 209.106,214.159 209.858,212.759C208.177,201.685 215.766,189.687 226.314,186.742C236.546,183.886 246.288,192.744 244.397,203.184C243.607,207.548 240.406,209.326 236.294,207.656C234.801,207.05 233.42,206.24 232.168,205.209C231.045,204.284 229.887,203.399 228.384,202.212C228.589,204.502 229.363,206.01 230.026,207.543C233.39,215.309 238.375,218.51 246.813,218.002C254.495,217.54 260.883,214.08 266.502,208.981C273.926,202.242 277.411,193.722 276.869,183.892C276.492,177.072 273.849,170.73 270.081,164.955C263.276,154.524 254.064,147.118 242.334,142.877C234.594,140.766 226.74,140.36 218.796,141.298C215.506,142.052 214.524,144.712 213.708,147.584C213.044,146.062 213.072,144.322 211.703,143.232C211.203,143.331 210.703,143.431 210.203,143.531C208.098,144.421 205.993,145.31 203.889,146.199C203.318,146.518 202.747,146.838 202.176,147.157C200.806,147.947 199.436,148.739 198.067,149.529L197.989,149.483C197.782,149.93 197.482,150.219 196.942,150.11L196.948,150.16C196.758,150.991 196.046,151.252 195.394,151.579C194.413,152.437 193.432,153.294 192.452,154.152C190.344,156.506 188.237,158.859 186.129,161.212C185.979,161.384 185.83,161.557 185.68,161.729C183.709,165.331 181.738,168.933 179.768,172.535C179.78,172.687 179.733,172.82 179.629,172.931C179.125,174.593 178.623,176.257 177.714,177.759C177.625,178.114 177.535,178.468 177.446,178.822C177.278,179.944 177.037,181.043 176.436,182.027C176.368,182.391 176.301,182.755 176.234,183.118C176.101,183.651 175.969,184.183 175.837,184.715C175.722,185.081 175.609,185.448 175.494,185.815C174.912,189.844 174.108,193.857 173.795,197.907C173.212,205.442 174.062,212.852 176.581,220.025C176.721,220.393 176.861,220.761 177.001,221.129L177.141,221.307L176.994,221.451C176.839,221.558 176.684,221.665 176.529,221.772C176.707,223.076 178.488,223.009 178.686,224.297C180.461,226.804 182.237,229.312 184.012,231.82C185.103,232.706 186.221,233.563 187.282,234.485C197.54,243.405 209.263,247.967 223.009,246.546C224.557,245.965 226.318,246.498 227.811,245.629C228.188,245.548 228.565,245.466 228.942,245.384C229.3,245.337 229.658,245.289 230.016,245.242C231.788,244.663 233.559,244.084 235.331,243.505C235.7,243.358 236.069,243.211 236.437,243.064C236.584,242.965 236.745,242.907 236.922,242.891C244.58,239.754 252.215,236.557 260.726,236.638C273.136,236.756 283.399,246.228 284.485,258.614C285.277,267.654 278.438,275.396 269.367,275.87C263.492,276.179 258.075,274.578 252.88,272.114C248.057,269.828 243.33,267.341 238.561,264.942C238.371,264.802 238.181,264.662 237.992,264.523L238.008,264.564C237.282,264.483 236.717,264.169 236.41,263.476C235.047,263.505 233.824,263.072 232.695,262.334C232.156,262.156 231.617,261.979 231.078,261.801C230.808,261.646 230.538,261.488 230.268,261.333C229.82,261.288 229.372,261.242 228.924,261.196L228.676,261.233L228.429,261.185C227.246,261.281 226.266,260.63 225.196,260.308C224.218,260.248 223.235,260.234 222.263,260.12C214.203,259.179 206.919,261.235 200.192,265.657C195.031,269.05 191.665,273.907 188.775,279.191C189.346,281.796 191.159,283.202 194.016,284.25C190.384,285.339 188.964,287.964 188.008,291.31C187.724,289.806 187.551,288.662 186.891,287.677C186.003,294.304 187.01,300.625 190.063,306.582C193.822,313.916 199.584,318.269 208.049,318.733C212.908,318.999 217.61,318.133 222.328,317.241C227.563,316.251 232.756,314.962 238.139,315.034C244.884,314.195 251.419,314.835 257.738,317.516C268.408,322.042 272.386,332.169 267.642,342.772C265.812,346.863 262.963,350.31 260.736,354.147C260.893,354.299 261.051,354.452 261.207,354.606C278.104,345.758 281.438,327.183 273.832,312.914C270.543,306.744 264.722,304.29 258.437,302.566C251.844,300.756 244.956,300.179 238.499,297.787C236.065,296.886 233.721,295.855 231.826,294.024C229.08,291.371 227.428,288.412 229.244,284.517C227.295,284.998 226.386,286.464 225.657,289.156C225.111,286.594 224.352,285.078 222.013,284.397C223.959,283.44 225.131,282.263 225.67,280.406C226.281,282.393 227.853,283.366 229.239,284.51C233.349,279.619 238.577,278.89 244.63,279.72C252.192,280.758 258.259,284.553 264.371,288.664C268.59,291.503 272.568,294.726 277.239,296.921C280.83,298.608 284.575,299.56 288.407,300.339C298.009,300.585 307.186,298.69 315.989,294.891C325.469,290.799 331.856,283.866 334.916,273.999C337.982,264.113 338.712,254.091 336.176,243.952C335.759,245.084 335.357,245.077 335.13,243.891Z" style="fill:rgb(189,203,232);fill-rule:nonzero;"/>
        <path d="M236.405,263.468C236.407,263.471 236.409,263.473 236.41,263.476C236.413,263.476 236.415,263.477 236.418,263.477L236.405,263.468Z" style="fill:rgb(189,203,232);fill-rule:nonzero;"/>
        <path d="M283.051,169.154C283.038,169.129 283.026,169.104 283.012,169.079C283.015,169.113 283.018,169.147 283.021,169.181L283.051,169.154Z" style="fill:rgb(189,203,232);fill-rule:nonzero;"/>
        <path d="M259.733,131.554C263.568,137.676 271.166,142.495 279.387,135.882C279.475,135.798 279.546,135.702 279.6,135.592C281.836,132.955 283.564,130.091 283.619,126.492C283.688,121.976 281.229,119.885 276.806,120.81C275.074,121.173 273.395,121.783 271.447,122.352C271.715,119.766 272.97,117.99 275.189,117.008C279.999,114.88 286.533,117.213 289.049,121.853C292.1,127.484 291.538,132.051 287.18,136.783C286.033,138.029 284.826,139.22 283.648,140.436C283.492,140.978 283.062,141.24 282.598,141.469C281.674,143.214 280.75,144.959 279.825,146.705C279.667,147.303 279.509,147.902 279.35,148.501L279.395,148.64L279.265,148.735C277.652,156.046 279.669,162.685 283.012,169.079C282.87,167.34 282.73,165.602 282.586,163.863C282.033,157.168 282.07,150.596 287.024,145.232C289.708,142.325 293.077,140.276 296.338,138.103C303.16,133.558 307.251,127.517 306.017,119.006C304.824,110.785 300.962,104.223 293.129,100.534C292.851,100.971 292.524,101.384 292.308,101.85C292.093,102.315 291.99,102.831 291.714,103.727C290.728,101.604 290.466,99.374 288.381,98.4C288.02,98.247 287.658,98.094 287.296,97.941L287.34,97.969C283.73,97.516 280.127,96.961 276.469,97.352C271.708,97.86 267.297,99.282 263.661,102.525C257.984,107.589 256.212,114.192 256.338,121.51C257.06,124.996 257.799,128.467 259.733,131.554Z" style="fill:rgb(189,203,232);fill-rule:nonzero;"/>
        <path d="M177.498,253.593C175.754,252.437 174.318,251.016 173.575,249.003C173.124,248.865 172.826,248.601 172.826,248.093C172.255,246.483 171.53,244.914 171.505,243.157C171.34,242.846 171.236,242.336 170.997,242.263C170.441,242.093 170.651,242.671 170.608,242.915C170.3,244.669 170.088,246.45 168.895,247.898C168.656,248.645 168.591,249.522 168.144,250.11C167.222,251.322 166.79,253.258 164.616,252.939C164.546,253.225 164.474,253.511 164.405,253.798C162.939,255.291 160.683,255.187 158.729,256.37C165.687,257.323 170.002,262.468 170.745,270.265C172.618,263.523 175.557,257.726 183.494,256.192C181.584,255.473 180.093,254.911 178.603,254.351C177.94,254.859 177.94,254.859 177.498,253.593Z" style="fill:rgb(189,203,232);fill-rule:nonzero;"/>
        <path d="M226.081,117.026C231.325,118.501 234.05,121.572 234.779,126.364C234.636,126.6 234.493,126.837 234.35,127.075C235.439,128.069 235.672,127.591 235.917,126.364C236.547,123.203 238.169,120.605 240.883,118.78C241.974,118.047 243.56,118.199 244.398,116.82C239.147,115.47 236.628,111.799 235.712,106.738C235.664,106.473 235.993,105.502 235.009,106.006C234.958,106.361 234.908,106.716 234.859,107.071C234.415,112.238 231.712,115.565 226.081,117.026Z" style="fill:rgb(189,203,232);fill-rule:nonzero;"/>
        <path d="M346.717,161.69C346.641,161.348 346.565,161.007 346.488,160.666C346.322,160.135 346.157,159.605 345.992,159.075C345.657,158.003 345.323,156.931 344.988,155.859C344.841,155.484 344.694,155.108 344.546,154.733C344.372,154.38 344.198,154.027 344.024,153.674C342.945,151.953 341.866,150.234 340.787,148.513C338.597,146.417 336.458,144.29 333.685,142.901C323.544,137.822 308.453,141.353 300.779,150.444C295.826,156.31 294.645,162.894 296.081,170.217C297.011,174.957 297.824,179.795 296.638,184.548C294.665,192.449 289.355,198.028 283.133,202.974C292.652,200.496 302.056,197.747 309.745,191.084C309.746,191.084 309.748,191.101 309.748,191.101C310.054,190.734 310.36,190.366 310.666,189.999C311.073,189.483 311.481,188.966 311.889,188.449C313.383,185.786 314.27,182.931 314.603,179.9C314.602,179.54 314.6,179.18 314.599,178.82C314.587,178.108 314.574,177.396 314.561,176.684C314.018,173.775 314.177,170.911 315.118,168.098C315.417,167.382 315.716,166.665 316.015,165.948C316.888,163.886 318.141,162.208 320.433,161.581C320.433,161.58 320.442,161.622 320.442,161.622C320.843,161.041 321.413,160.906 322.072,161.005C322.072,161.004 322.03,161.086 322.03,161.086C322.232,160.956 322.433,160.826 322.635,160.697C323.529,160.462 324.427,160.414 325.333,160.627C325.926,160.599 326.52,160.567 326.982,161.05C327.358,161.243 327.734,161.436 328.109,161.63C330.922,163.589 331.409,165.927 329.688,169.204C329.601,169.922 329.247,170.462 328.615,170.818C326.718,173.858 324.291,173.507 321.667,171.905C321.673,172.241 321.677,172.576 321.682,172.911C322.023,173.418 322.017,173.975 321.923,174.545C322.174,175.596 322.425,176.647 322.676,177.698C323.328,178.61 323.98,179.521 324.631,180.432C324.761,180.478 324.843,180.569 324.879,180.702C325.776,181.259 326.673,181.817 327.57,182.374C329.775,183.061 332.018,183.488 334.339,183.424C334.727,183.36 335.115,183.296 335.503,183.233C336.914,182.779 338.325,182.324 339.737,181.87C339.933,181.751 340.129,181.631 340.325,181.51C341.925,180.231 343.509,178.934 344.707,177.241C344.941,176.834 345.176,176.427 345.409,176.02C347.008,172.287 347.389,168.374 347.148,164.366C346.771,163.512 346.672,162.612 346.717,161.69Z" style="fill:rgb(189,203,232);fill-rule:nonzero;"/>
        <path d="M320.49,128.935C322.347,124.523 322.833,123.964 326.434,122.05C323.034,121.162 321.467,118.741 320.516,115.649C320.034,119.122 318.306,121.366 314.318,122.227C318.353,123.019 319.778,125.523 320.49,128.935Z" style="fill:rgb(189,203,232);fill-rule:nonzero;"/>
        <path d="M283.051,169.155C283.051,169.154 283.021,169.181 283.021,169.181C283.111,169.304 283.201,169.427 283.292,169.55C283.212,169.418 283.131,169.286 283.051,169.155Z" style="fill:rgb(189,203,232);fill-rule:nonzero;"/>
        <path d="M248.483,328.976C247.912,327.783 247.343,326.591 246.772,325.393C246.347,328.517 244.868,330.945 241.044,332.155C245.025,333.132 246.241,335.68 246.918,339.505C247.572,335.883 249.053,333.677 251.708,332.368C251.227,330.674 249.121,330.524 248.483,328.976Z" style="fill:rgb(189,203,232);fill-rule:nonzero;"/>
        <path d="M265.297,256.047C263.134,255.16 261.631,254.1 260.739,252.353C258.292,253.091 256.937,254.826 256.308,257.224C258.5,258.216 258.739,260.53 259.799,262.704C260.548,259.483 262.26,257.388 265.297,256.047Z" style="fill:rgb(189,203,232);fill-rule:nonzero;"/>
        <path d="M338.96,200.864C337.12,198.554 336.038,195.949 335.893,192.98C335.894,192.979 335.942,192.909 335.942,192.909C335.666,192.984 335.391,193.058 335.118,193.134C335.175,197.171 333.992,200.58 330.282,202.711C329.556,203.054 328.831,203.398 328.106,203.742C327.539,203.964 326.971,204.184 326.112,204.518C327.67,205.054 328.977,205.08 329.905,206.027C333.965,207.894 334.587,211.884 335.699,216.013C336.672,211.318 338.213,207.536 342.419,205.525C342.451,203.092 340.169,202.376 338.96,200.864Z" style="fill:rgb(189,203,232);fill-rule:nonzero;"/>
        <path d="M363.769,219.81C363.464,222.545 362.068,223.717 359.999,224.858C362.441,225.632 363.199,227.489 364.122,229.551C364.972,227.375 365.763,225.591 368.404,224.876C365.98,223.79 364.938,222.155 363.769,219.81Z" style="fill:rgb(189,203,232);fill-rule:nonzero;"/>
        <path d="M354.423,156.395C354.978,159.648 356.315,162.321 359.691,163.528C359.581,164.506 358.443,164.312 357.997,164.928C356.893,165.494 356.042,166.289 355.662,167.51C354.924,168.349 354.926,169.475 354.433,170.704C353.505,167.549 352.635,164.514 348.799,164.194C348.779,163.982 348.761,163.769 348.743,163.556C349.392,163.439 350.119,163.512 350.526,162.813C350.706,162.645 350.886,162.478 351.067,162.311C352.163,162.305 352.66,161.69 352.747,160.658C353.746,159.821 353.958,158.704 353.879,157.483C354.386,157.283 354.352,156.813 354.423,156.395Z" style="fill:rgb(228,228,233);fill-rule:nonzero;"/>
        <path d="M116.942,119.451L116.941,119.451L116.942,119.451C114.749,119.829 113.467,121.524 113.007,123.297C111.991,127.208 111.2,131.21 111.196,135.301C112.696,134.248 114.21,133.208 115.075,131.508C117.233,132.642 119.465,132.881 121.794,131.984C122.515,127.886 123.236,123.788 123.957,119.689C121.626,119.391 119.324,118.225 116.942,119.451Z" style="fill:rgb(255,0,0);fill-rule:nonzero;"/>
        <path d="M107.117,181.256C105.309,181.646 104.379,183.045 103.45,184.445C102.287,188.323 101.596,192.278 101.534,196.335C102.395,194.404 104.068,193.415 105.883,192.593C108.017,192.105 110.064,192.865 112.151,193.035C112.756,189.141 113.361,185.246 113.967,181.351C111.689,180.894 109.416,180.202 107.117,181.256Z" style="fill:rgb(255,0,0);fill-rule:nonzero;"/>
        <path d="M114.473,135.556C112.755,136.158 111.493,137.28 110.664,138.895C109.593,142.302 109.002,145.789 108.937,149.364C109.945,147.279 111.604,145.991 113.814,145.377C115.763,145.264 117.679,145.473 119.567,145.967C120.109,142.548 120.65,139.131 121.192,135.713C118.959,135.356 116.734,134.691 114.473,135.556Z" style="fill:rgb(255,0,0);fill-rule:nonzero;"/>
        <path d="M123.957,119.689C140.967,122.367 157.975,125.054 174.988,127.707C176.712,127.976 177.192,128.829 176.925,130.491C173.097,154.337 169.302,178.189 165.499,202.039C164.614,202.359 163.735,202.153 162.856,202.012C147.068,199.498 131.276,197.008 115.488,194.489C114.25,194.292 112.953,194.212 111.985,193.235C111.488,192.511 111.463,191.687 111.586,190.875C112.086,187.573 112.44,184.246 113.255,180.998C113.991,174.268 115.254,167.617 116.305,160.935C117.102,155.87 117.708,150.771 118.844,145.763C119.19,142.349 119.665,138.955 120.466,135.614C120.524,134.342 120.687,133.086 121.069,131.865C121.293,128.558 121.976,125.319 122.518,122.06C122.679,121.09 123.064,120.228 123.957,119.689Z" style="fill:rgb(233,54,28);fill-rule:nonzero;"/>
        <g transform="matrix(1,0,0,1.01271,-1.13687e-13,-2.33676)">
            <path d="M119.567,145.967C111.157,195.046 118.412,176.298 103.249,183.797C105.38,171.535 106.26,159.748 109.564,147.415C111.419,144.466 117.312,143.29 119.567,145.967Z" style="fill:rgb(232,211,189);fill-rule:nonzero;"/>
        </g>
        <path d="M112.152,193.035C128.966,195.711 145.782,198.385 162.596,201.065C163.615,201.227 164.69,201.242 165.499,202.038C165.422,202.592 165.345,203.145 165.268,203.697C164.583,204.677 163.627,204.699 162.595,204.455C144.895,201.661 127.199,198.848 109.503,196.033C108.084,195.808 106.69,195.522 105.561,196.754C105.173,197.378 104.668,197.932 104.405,198.642C103.499,201.095 104.835,203.429 107.388,203.868C108.259,204.019 109.168,204.03 109.966,204.486C110.85,205.495 111.918,204.864 112.925,204.806C114.06,204.873 115.171,205.062 116.264,205.357C117.205,205.545 117.664,207.193 118.987,206.249C131.21,207.991 143.37,210.094 155.563,211.955C156.72,211.949 157.838,212.305 158.986,212.39C159.746,212.447 160.584,212.748 161.195,211.968C161.364,211.828 161.559,211.735 161.774,211.686C162.83,212.158 163.051,213.262 163.604,214.115C163.567,215.628 162.924,216.127 161.34,215.872C142.95,212.914 124.545,210.048 106.157,207.075C101.432,206.311 99.424,201.453 101.533,196.335C101.757,193.471 104.054,192.765 106.175,191.868C108.301,191.571 110.396,191.441 112.152,193.035Z" style="fill:rgb(255,0,0);fill-rule:nonzero;"/>
        <path d="M111.196,135.301C112.821,131.421 117.086,130.742 121.794,131.984C121.728,134.426 121.097,135.303 120.467,135.614C119.351,136.165 118.229,134.95 116.403,135.051C114.666,135.146 113.28,136.379 112.301,137.571C111.725,138.088 111.023,138.614 110.689,138.41C110.219,138.122 110.694,136.501 111.196,135.301Z" style="fill:rgb(232,213,189);fill-rule:nonzero;"/>
        <path d="M128.265,165.504C129.022,160.72 129.759,155.934 130.548,151.156C130.983,148.507 131.895,147.826 134.503,148.232C142.307,149.446 150.108,150.675 157.903,151.947C161.134,152.474 161.764,153.383 161.248,156.695C159.871,165.529 158.46,174.358 157.043,183.185C156.902,184.064 156.627,184.921 156.411,185.787C156.06,187.191 155.135,187.736 153.746,187.516C145.135,186.155 136.526,184.793 127.918,183.414C125.954,183.1 125.688,181.739 125.954,180.073C126.73,175.218 127.497,170.361 128.265,165.504Z" style="fill:rgb(232,213,189);fill-rule:nonzero;"/>
        <path d="M148.17,139.944C143.753,139.242 139.338,138.528 134.917,137.85C133.613,137.65 132.438,137.198 132.666,135.678C132.883,134.231 134.037,133.944 135.407,134.164C144.238,135.586 153.073,136.984 161.91,138.368C163.253,138.578 164.242,139.032 163.957,140.64C163.661,142.313 162.453,142.212 161.2,142.012C156.857,141.319 152.513,140.633 148.17,139.944Z" style="fill:rgb(232,218,189);fill-rule:nonzero;"/>
        <path d="M111.261,198.833C113.744,198.248 116.072,199.257 118.463,199.574C119.412,199.7 119.123,200.588 119.048,201.214C118.825,203.051 118.562,204.884 118.315,206.718C116.992,208.337 117.147,205.9 116.373,206.01C115.157,205.01 113.864,204.485 112.345,205.359C111.653,205.049 110.598,207.76 110.188,205.1C109.963,204.671 109.704,204.252 109.773,203.735C109.795,203.259 109.828,202.783 109.95,202.319C110.006,201.853 110.059,201.385 110.175,200.928C110.23,200.456 110.311,199.99 110.501,199.549C110.662,199.212 110.889,198.946 111.261,198.833Z" style="fill:rgb(241,91,34);fill-rule:nonzero;"/>
        <path d="M112.345,205.359C114.612,203.629 114.612,203.629 116.373,206.01C115.03,205.793 113.688,205.576 112.345,205.359Z" style="fill:rgb(218,227,222);fill-rule:nonzero;"/>
        <path d="M426.024,380.158C425.757,379.236 425.49,378.313 425.223,377.391C423.994,377.943 422.744,377.622 421.506,377.489C421.931,377.505 422.357,377.52 422.783,377.536C423.63,377.57 424.416,377.657 425.09,377.04C424.198,375.085 423.087,373.197 422.466,371.16C421.43,367.76 418.25,365.843 416.967,362.618C416.183,360.65 415.319,358.616 413.511,357.254C412.732,356.628 411.834,356.361 410.845,356.253C399.691,355.035 388.681,352.906 377.645,350.951C371.553,349.918 365.528,348.542 359.463,347.371C347.24,345.01 334.96,343.272 322.484,343.244C319.555,343.294 316.625,343.262 313.693,343.272C310.473,343.2 307.32,343.792 304.158,344.235C289.983,346.218 276.814,350.724 265.738,360.137C262.94,362.514 259.906,364.789 258.368,368.347C258.389,369.153 258.984,369.512 259.581,369.807C264.514,372.24 267.891,376.187 270.461,380.93C270.92,381.779 271.342,382.678 272.427,382.903C273.965,383.169 275.459,382.902 276.942,382.524C288.61,379.49 300.546,378.478 312.532,378.218C321.008,378.035 329.478,378.803 337.913,379.643C348.711,380.718 359.516,381.705 370.322,382.668C372.187,382.671 374.017,383.121 375.887,383.122C391.766,383.129 407.645,383.131 423.524,383.112C424.551,383.111 425.638,383.227 426.471,382.384C426.322,381.642 426.173,380.9 426.024,380.158Z" style="fill:rgb(193,167,144);fill-rule:nonzero;"/>
        <path d="M229.939,345.363C220.652,340.941 210.619,339.88 200.563,339.301C191.247,338.764 181.96,339.585 172.706,340.829C156.276,343.039 140.204,347.041 124.002,350.39C113.559,352.549 103.069,354.43 92.543,356.124C91.137,356.351 89.738,356.453 88.515,357.266C87.308,358.246 86.937,359.747 86.191,361.013C85.023,362.994 84.322,365.582 82.626,366.829C80.725,368.228 80.113,369.9 79.424,371.807C78.466,374.455 77.445,377.08 76.45,379.716C77.065,380.308 77.845,380.128 78.571,380.149C78.869,380.157 79.168,380.159 79.467,380.165C78.937,380.165 78.407,380.167 77.878,380.163C77.209,380.158 76.528,380.129 75.974,380.618C75.825,381.203 75.676,381.788 75.527,382.373C76.572,383.371 77.897,383.118 79.128,383.107C91.455,382.991 103.792,383.499 116.112,382.656C122.923,382.102 129.746,381.763 136.565,381.344C143.767,380.902 150.958,380.309 158.154,379.79C168.096,379.074 178.043,378.494 188.004,378.175C194.187,377.978 200.339,378.608 206.5,379.024C213.21,379.477 219.821,380.415 226.248,382.462C227,382.604 227.74,382.846 228.519,382.651C229.492,382.201 229.814,381.245 230.257,380.398C234.021,373.184 239.873,369.023 248.017,368.145C249.151,368.022 250.436,368.101 251.173,366.9C251.174,365.812 250.686,364.881 250.18,363.969C245.496,355.525 238.587,349.482 229.939,345.363Z" style="fill:rgb(193,167,144);fill-rule:nonzero;"/>
        <path d="M329.789,289.732C336.294,285.132 343.246,281.279 350.319,277.657C356.394,274.547 362.59,271.673 368.733,268.695C371.002,267.839 373.271,266.985 375.894,265.996C374.471,271.096 373.138,275.852 371.82,280.613C371.372,282.231 369.869,281.852 368.841,282.031C361.741,283.274 354.688,284.733 347.677,286.394C341.675,287.817 335.737,289.473 329.916,291.53C329.299,291.749 328.703,292.146 327.988,291.957C327.784,290.565 329.463,290.696 329.789,289.732Z" style="fill:rgb(178,153,132);fill-rule:nonzero;"/>
        <path d="M329.789,289.732C329.908,291.055 328.119,290.835 327.988,291.957C327.008,292.562 326.012,293.133 324.855,293.336C326.143,291.646 328.081,290.846 329.789,289.732Z" style="fill:rgb(133,119,103);fill-rule:nonzero;"/>
        <path d="M272.013,382.512C273.537,382.425 275.076,382.478 276.56,382.018C302.746,381.217 328.938,381.869 355.127,381.674C359.066,381.645 363.002,381.809 366.931,382.144C367.956,382.232 369.011,382.324 370.035,382.028C387.578,382.881 405.133,382.243 422.681,382.436C423.944,382.449 425.208,382.403 426.471,382.384C428.912,382.727 430.111,383.82 429.977,385.58C429.843,387.353 428.538,388.27 426.051,388.271C377.297,388.276 328.544,388.273 279.79,388.29C278.858,388.291 277.838,387.955 277.003,388.705C275.301,388.999 273.588,388.971 271.907,388.655C270.543,388.399 269.28,387.88 269.424,386.092C269.562,385.627 269.799,385.274 270.349,385.557C272.155,386.487 272.221,385.53 271.892,384.147C271.758,383.584 271.518,383.024 272.013,382.512Z" style="fill:rgb(90,106,178);fill-rule:nonzero;"/>
        <path d="M75.527,382.373C87.858,382.315 100.194,382.851 112.518,382.038C113.775,381.955 115.04,382.013 116.301,382.006C119.792,382.47 123.279,381.931 126.761,381.863C129.957,381.802 133.161,381.687 136.358,381.682C164.598,381.646 192.839,381.676 221.08,381.629C223.014,381.625 224.89,382.195 226.822,381.978C227.387,382.139 227.952,382.301 228.517,382.463C228.901,382.929 228.671,383.426 228.59,383.915C228.486,384.541 228.113,385.338 228.888,385.659C229.735,386.01 229.896,385.095 230.221,384.576C230.621,383.939 230.75,382.97 231.886,383.248C233.011,384.021 233.36,385.101 232.935,386.346C232.436,387.807 231.34,388.624 229.796,388.773C227.595,388.985 225.358,388.648 223.181,389.218C222.662,387.867 221.49,388.286 220.522,388.285C183.676,388.274 146.831,388.276 109.985,388.276C98.722,388.276 87.46,388.274 76.197,388.277C74.999,388.277 73.79,388.355 72.902,387.303C72.165,386.431 71.966,385.463 72.352,384.387C72.887,382.896 74.106,382.473 75.527,382.373Z" style="fill:rgb(90,106,178);fill-rule:nonzero;"/>
        <path d="M257.709,368.451C258.012,368.51 258.315,368.568 258.618,368.626C264.964,371.44 268.967,376.515 272.013,382.512C272.139,383.001 272.211,383.514 272.403,383.976C272.796,384.918 273.015,385.883 272.038,386.522C270.843,387.302 270.407,386.146 269.828,385.451C267.475,378.458 263.404,372.808 256.028,370.868C245.766,368.17 235.482,372.744 231.378,383.274C231.066,384.014 230.768,384.761 230.437,385.492C230.087,386.265 229.617,387.016 228.627,386.6C227.759,386.236 227.583,385.424 227.836,384.552C228.04,383.849 228.289,383.158 228.518,382.463C231.034,376.981 234.529,372.408 240.12,369.699C243.541,368.042 247.176,367.482 250.906,367.278C251.454,367.852 252.13,367.569 252.765,367.554C253.686,367.628 254.607,367.702 255.529,367.778C256.256,368.003 256.983,368.227 257.709,368.451Z" style="fill:rgb(241,91,34);fill-rule:nonzero;"/>
        <path d="M313.222,343.876C316.358,343.183 319.493,343.19 322.629,343.874C319.493,343.875 316.358,343.876 313.222,343.876Z" style="fill:rgb(190,191,171);fill-rule:nonzero;"/>
        <path d="M199.036,371.673C199.006,369.446 198.975,367.217 198.945,364.989C198.526,362.763 199.166,360.504 198.745,358.278C198.718,357.942 198.691,357.606 198.664,357.27C198.26,356.832 198.238,356.377 198.602,355.905C198.614,353.123 198.627,350.343 198.64,347.562C198.822,347.369 199.045,347.282 199.309,347.296C206.253,347.223 213.077,348.108 219.79,349.874C220.649,350.101 221.541,350.247 222.269,350.822C222.469,351.016 222.522,351.244 222.431,351.507C222.262,360.24 222.092,368.973 221.914,378.2C220.297,377.012 219.07,376.111 217.843,375.209C216.884,374.906 216.025,374.42 215.238,373.798C214.99,373.638 214.766,373.447 214.535,373.267C209.525,369.363 211.415,369.566 206.046,372.74C205.544,373.118 204.927,373.205 204.356,373.408C202.53,373.821 201.22,375.228 199.393,376.012C198.836,375.056 199.272,373.993 199.01,373.059C198.719,372.592 198.688,372.129 199.036,371.673Z" style="fill:rgb(241,91,34);fill-rule:nonzero;"/>
        <path d="M272.911,388.214C271.269,387.973 269.468,387.92 269.829,385.45C270.306,384.81 270.063,384.139 269.797,383.547C268.174,379.932 266.226,376.536 263.109,373.956C259.135,370.667 254.605,369.404 249.448,369.676C241.544,370.095 235.843,373.844 231.94,380.556C231.477,381.353 230.919,382.237 231.379,383.274C232.356,384.079 233.015,385.067 232.408,386.326C231.799,387.593 230.782,388.33 229.237,388.235C227.773,388.144 226.3,388.226 224.83,388.213C224.06,388.206 223.327,388.22 223.181,389.218C223.672,391.418 225.243,392.196 227.284,392.197C242.473,392.215 257.663,392.22 272.852,392.192C275.126,392.187 276.664,391.112 277.003,388.705C275.735,387.74 274.271,388.414 272.911,388.214Z" style="fill:rgb(40,77,160);fill-rule:nonzero;"/>
        <path d="M348.019,379.943C332.673,378.395 317.327,376.832 301.87,377.995C293.326,378.638 284.834,379.656 276.56,382.018C277.176,382.65 277.966,382.391 278.681,382.391C308.272,382.404 337.863,382.405 367.453,382.389C368.316,382.389 369.251,382.679 370.035,382.028C362.697,381.335 355.354,380.683 348.019,379.943Z" style="fill:rgb(40,77,160);fill-rule:nonzero;"/>
        <path d="M226.822,381.978C225.254,381.507 223.707,380.947 222.115,380.58C210.339,377.87 198.349,377.318 186.346,377.601C162.946,378.154 139.661,380.697 116.301,382.006C116.992,382.676 117.86,382.391 118.647,382.392C154.004,382.404 189.362,382.401 224.719,382.385C225.43,382.384 226.229,382.658 226.822,381.978Z" style="fill:rgb(40,77,160);fill-rule:nonzero;"/>
        <path d="M199.073,347.486C199.968,345.432 201.834,345.664 203.564,345.578C210.097,345.936 216.539,346.829 222.785,348.867C223.358,349.739 223.417,350.508 222.345,351.049C217.054,349.755 211.714,348.762 206.297,348.128C204.366,347.903 202.459,347.938 200.544,347.997C199.921,348.018 199.378,348.213 199.073,347.486Z" style="fill:rgb(195,67,53);fill-rule:nonzero;"/>
        <path d="M375.556,356.944C367.505,355.246 359.413,353.738 351.327,352.211C342.057,350.459 332.694,349.351 323.282,348.882C310.048,348.222 297.233,350.507 284.827,355.107C281.016,356.52 277.26,358.074 273.825,360.291C277.494,359.086 281.059,357.628 284.701,356.395C294.38,353.117 304.28,350.945 314.542,350.596C325.293,350.231 335.887,351.498 346.476,353.198C360.755,355.49 374.94,358.283 389.167,360.854C391.887,361.345 394.566,362.225 397.414,361.947C390.13,360.27 382.869,358.485 375.556,356.944Z" style="fill:rgb(137,119,103);fill-rule:nonzero;"/>
        <path d="M273.775,368.505C298.742,357.971 324.615,357.873 350.858,362.042C324.507,356.616 298.556,355.82 273.775,368.505Z" style="fill:rgb(137,119,103);fill-rule:nonzero;"/>
        <path d="M282.43,373.419C302.449,367.131 322.788,367.906 343.212,370.571C322.74,366.841 302.37,365.377 282.43,373.419Z" style="fill:rgb(137,119,103);fill-rule:nonzero;"/>
        <path d="M201.394,345.263C193.954,345.243 186.53,345.271 179.102,346.046C171.938,346.794 164.834,347.828 157.754,349.098C149.204,350.631 140.825,352.921 132.345,354.766C128.298,355.647 124.311,356.811 120.297,357.847C120.809,358.167 121.261,358.204 121.681,358.104C135.819,354.723 150.013,351.68 164.419,349.589C175.789,347.939 187.174,347.244 198.64,347.561C198.784,347.531 198.928,347.507 199.073,347.486C200.43,346.519 202.195,346.516 203.563,345.578C202.896,345.097 202.124,345.265 201.394,345.263Z" style="fill:rgb(137,119,103);fill-rule:nonzero;"/>
        <path d="M197.072,363.358C188.52,362.732 179.958,363.147 171.43,363.745C164.269,364.247 157.123,365.102 150.023,366.258C145.335,367.022 140.608,367.558 136.003,368.821C156.906,366.166 177.783,363.244 198.946,364.989C199.001,362.748 198.32,363.449 197.072,363.358Z" style="fill:rgb(137,119,103);fill-rule:nonzero;"/>
        <path d="M144.601,375.107C162.691,373.154 180.818,372.253 199.011,373.059C199.019,372.597 199.028,372.135 199.036,371.673C180.795,371.293 162.603,371.693 144.601,375.107Z" style="fill:rgb(137,119,103);fill-rule:nonzero;"/>
        <path d="M198.664,357.271C198.643,356.816 198.623,356.361 198.602,355.905C197.759,355.521 196.862,355.564 195.967,355.562C187.042,355.532 178.171,356.351 169.323,357.396C164.159,358.005 159.027,358.878 153.88,359.632C168.782,358.154 183.634,356.161 198.664,357.271Z" style="fill:rgb(137,119,103);fill-rule:nonzero;"/>
        <path d="M222.785,348.867C222.876,349.642 222.769,350.377 222.345,351.049C222.374,351.201 222.403,351.355 222.431,351.508C230.473,353.425 237.124,357.809 243.21,363.213C238.144,355.946 231.003,351.643 222.785,348.867Z" style="fill:rgb(137,119,103);fill-rule:nonzero;"/>
        <path d="M214.452,373.211C211.584,372.556 208.726,371.696 205.738,372.509C205.099,372.534 204.681,372.901 204.357,373.408C208.853,374.008 213.348,374.609 217.843,375.209C217.129,374.629 216.414,374.049 215.698,373.469C215.219,373.676 214.866,373.306 214.452,373.211Z" style="fill:rgb(137,119,103);fill-rule:nonzero;"/>
        <path d="M363.194,269.926C358.606,271.28 351.615,273.439 343.217,276.438C314.964,286.53 294.731,293.988 277.786,311.393C273.66,315.631 267.848,322.391 262.372,332.202C261.754,314.113 259.419,299.394 257.268,288.942C255.411,279.924 253.988,273.158 250.625,264.116C245.928,251.488 239.302,239.85 231.395,228.913C227.19,223.096 222.839,217.402 218.427,211.747C217.4,210.43 216.419,209.84 214.722,210.926C207.356,215.644 199.923,220.258 192.502,224.89C186.793,228.453 181.066,231.988 175.347,235.535C179.237,239.117 183.117,242.714 186.903,246.399C192.348,251.7 197.739,257.062 202.88,262.677C206.803,266.962 210.817,271.177 214.629,275.555C222.855,285.003 230.748,294.737 237.917,305.023C243.117,312.486 248.222,320.01 252.033,328.33C254.983,334.768 256.884,341.46 257.64,348.494C257.699,349.04 257.443,349.953 258.241,350.069C258.234,350.08 258.232,350.093 258.226,350.105C258.225,354.776 258.225,359.446 258.225,364.466C262.399,358.724 266.316,353.336 270.231,347.948C271.204,348.03 271.573,347.016 272.048,346.395C279.064,337.215 286.511,328.384 294.331,319.9C303.52,309.931 313.563,300.864 324.886,293.311L324.855,293.336C326.531,292.084 328.441,291.204 330.152,290.011C341.851,282.414 354.179,275.988 366.893,270.278C367.116,270.178 367.707,269.846 368.53,269.426C371.48,267.921 374.012,266.79 375.894,265.996C373.108,266.84 368.655,268.2 363.194,269.926Z" style="fill:rgb(239,242,215);fill-rule:nonzero;"/>
        <path d="M247.176,344.302C246.59,343.011 245.862,341.793 244.955,340.69C244.622,340.4 244.296,340.103 243.971,339.804C243.877,339.556 243.774,339.314 243.638,339.092C237.717,329.42 230.757,320.552 223.025,312.317C217.803,306.755 212.401,301.368 206.533,296.48C198.23,289.562 189.574,283.128 180.691,277C178.306,275.358 175.921,273.714 173.536,272.071C173.538,272.259 173.502,272.416 173.441,272.554C171.757,270.713 169.834,269.247 167.281,268.757C167.046,269.042 166.862,269.405 166.567,269.602C163.134,271.888 159.859,274.386 156.546,276.84C149.125,282.337 142.376,288.596 135.63,294.846C128.853,301.125 122.576,307.923 116.217,314.626C115.802,315.063 115.363,315.472 115.372,316.139C115.857,316.817 116.592,317.03 117.341,316.999C119.521,316.909 121.634,317.444 123.781,317.595C132.383,318.201 140.964,319.018 149.55,319.814C159.17,320.705 168.773,321.7 178.357,322.929C191.213,324.576 203.967,326.704 216.47,330.179C225.128,332.585 233.523,335.557 240.712,341.205C242.423,342.549 243.875,344.144 245.42,345.654C245.937,346.159 246.617,346.963 247.295,346.514C248.159,345.94 247.499,345.012 247.176,344.302Z" style="fill:rgb(239,242,215);fill-rule:nonzero;"/>
        <path d="M253.59,365.72C253.353,364.066 253.212,362.387 252.406,360.871C252.083,360.421 251.864,359.91 251.622,359.413C249.985,351.926 245.596,346.085 239.777,341.252C234.683,337.023 228.583,334.597 222.366,332.433C209.614,327.994 196.417,325.626 183.106,323.778C176.131,322.808 169.14,321.962 162.111,321.416C154.871,320.854 147.651,320.037 140.423,319.331C137.589,319.248 134.79,318.581 131.937,318.825C131.924,318.841 131.912,318.858 131.899,318.872C131.862,318.78 131.818,318.684 131.755,318.582C129.871,317.872 127.865,317.926 125.913,317.643C124.918,317.498 123.878,317.176 122.977,317.972C122.962,318.443 122.759,318.818 122.43,319.152C116.202,325.478 110.408,332.197 104.508,338.823C99.094,344.903 93.613,350.915 88.515,357.266C96.995,356.317 105.383,354.754 113.74,353.102C128.292,350.225 142.774,346.997 157.308,344.026C167.276,341.988 177.352,340.557 187.505,339.97C196.199,339.467 204.902,339.88 213.528,341.242C222.145,342.603 230.289,345.194 237.383,350.509C243.319,354.957 248.17,360.259 250.906,367.278C251.308,368.286 252.069,368.088 252.84,367.851C253.616,367.324 253.709,366.553 253.59,365.72Z" style="fill:rgb(239,242,215);fill-rule:nonzero;"/>
        <path d="M257.334,356.439C257.178,355.787 256.984,355.148 256.833,354.495C256.939,345.972 255.16,337.798 251.829,329.944C246.874,318.257 239.284,308.201 231.793,298.11C225.68,289.874 219.296,281.843 212.531,274.127C206.6,267.363 200.657,260.607 194.169,254.357C191.901,251.966 189.665,249.543 187.134,247.42C187.165,247.36 187.201,247.308 187.228,247.244C185.575,244.486 183.02,242.687 180.471,240.883C180.44,240.861 180.34,240.936 180.272,240.966C179.989,241.509 179.572,241.905 179.029,242.199C170.149,246.995 161.984,252.874 153.865,258.823C154.501,259.801 155.519,260.308 156.456,260.905C171.859,270.692 187.118,280.682 201.635,291.772C211.145,299.036 219.774,307.226 227.598,316.246C235.423,325.267 242.501,334.858 248.153,345.411C251.607,351.861 254.668,358.489 254.964,366.013C254.994,366.776 254.906,367.766 256.15,367.769C256.991,367.304 256.953,366.435 257.096,365.658C257.663,362.6 257.558,359.521 257.334,356.439Z" style="fill:rgb(239,242,215);fill-rule:nonzero;"/>
        <path d="M412.429,355.084C405.579,344.977 398.61,334.945 391.985,324.691C389.957,321.553 387.447,320.019 383.981,319.161C375.142,316.973 366.247,315.176 357.246,313.771C352.058,312.961 346.86,311.984 341.653,311.781C334.252,311.494 326.814,311.278 319.417,312.523C311.533,313.851 303.959,316.007 296.875,319.753C296.306,320.054 293.057,322.373 292.931,322.417C292.396,322.928 291.807,323.394 291.332,323.955C287.249,328.78 283.089,333.546 279.142,338.48C274.271,344.57 269.491,350.738 265.225,357.28C265.224,357.28 265.223,357.28 265.223,357.281C262.359,360.762 259.881,364.505 257.709,368.451C257.965,368.755 258.269,368.804 258.618,368.627C259.258,367.727 259.807,366.743 260.551,365.941C266.096,359.949 272.517,355.196 279.971,351.757C290.546,346.879 301.697,344.641 313.222,343.876C316.358,343.528 319.493,343.532 322.629,343.874C327.305,343.837 331.942,344.417 336.596,344.703C346.013,345.281 355.157,347.454 364.414,348.964C368.861,349.69 373.169,351.154 377.69,351.5C379.565,352.253 381.586,352.288 383.537,352.657C393.474,354.535 403.452,356.159 413.511,357.254C413.384,356.414 412.892,355.767 412.429,355.084Z" style="fill:rgb(237,242,215);fill-rule:nonzero;"/>
        <path d="M215.698,373.469C213.115,374.017 210.692,372.785 208.154,372.787C207.349,372.788 206.544,372.608 205.739,372.509C206.856,371.271 208.481,370.786 209.766,369.797C210.588,369.164 211.147,369.838 211.708,370.275C213.052,371.321 214.37,372.403 215.698,373.469Z" style="fill:rgb(193,165,142);fill-rule:nonzero;"/>
        <path d="M153.865,258.823C189.934,278.705 259.763,332.124 253.949,368.154C251.489,365.224 252.058,356.897 248.149,352.122C227.873,317.575 138.029,323.064 115.035,317.051C159.613,318.442 230.512,324.668 247.224,346.396C223.057,301.385 184.239,283.253 153.865,258.823Z" style="fill:rgb(161,140,121);fill-rule:nonzero;"/>
        <path d="M270.25,347.924C285.858,328.029 302.837,306.997 324.886,293.311C281.783,323.004 251.583,385.773 256.629,364.338C261.202,314.911 201,263.732 178.967,239.757C177.495,238.973 173.045,233.443 177.625,236.861C217.675,275.596 262.578,322.508 258.749,361.142C257.157,368.602 266.149,349.639 270.25,347.924Z" style="fill:rgb(133,119,103);fill-rule:nonzero;"/>
        <path d="M355.765,117.44C356.348,115.596 357.373,114.163 359.125,113.181C371.271,106.37 383.404,99.535 395.499,92.633C396.753,91.917 397.433,92.025 398.04,93.241C399.142,94.057 399.844,95.184 400.504,96.355C410.043,113.316 419.583,130.276 429.192,147.197C429.844,148.345 430.708,149.449 430.528,150.912C430.157,152.118 429.068,152.551 428.113,153.096C417.123,159.382 406.065,165.546 395.033,171.758C392.485,173.193 390.123,174.608 389.701,177.835C389.662,178.13 389.405,178.341 389.142,178.499C387.721,178.259 387.421,176.96 386.855,175.976C380.477,164.895 374.301,153.699 367.947,142.605C364.436,136.476 360.973,130.32 357.532,124.152C356.812,122.86 356.039,121.573 355.693,120.102C355.327,119.204 355.321,118.316 355.765,117.44Z" style="fill:rgb(237,242,215);fill-rule:nonzero;"/>
        <path d="M346.13,120.671C347.142,119.849 348.269,119.233 349.496,118.799C350.043,118.977 350.29,119.437 350.542,119.9C356.745,131.293 363.269,142.506 369.602,153.825C373.569,160.916 377.702,167.912 381.572,175.057C382.15,176.124 382.7,177.182 382.178,178.442C381.709,179.362 380.838,179.812 379.996,180.29C369.1,186.471 358.166,192.582 347.241,198.712C346.117,199.343 345.007,200.345 343.523,199.589C341.792,197.971 340.966,195.761 339.84,193.77C330.746,177.685 321.636,161.609 312.594,145.495C311.976,144.393 311.277,143.317 311.328,141.972C311.167,141.289 310.323,140.688 311.577,139.996C321.317,134.618 331.013,129.162 340.723,123.731C341.471,123.863 341.815,124.456 342.144,125.03C344.278,128.751 346.406,132.476 348.512,136.214C348.913,136.924 349.265,137.666 349.1,138.528C348.668,139.593 347.656,139.984 346.763,140.498C340.112,144.324 333.399,148.043 326.766,151.903C333.297,148.344 339.754,144.654 346.229,140.995C347.312,140.383 348.326,139.529 349.694,139.572C350.979,140.264 351.521,141.362 351.456,142.791C350.205,144.803 347.997,145.533 346.089,146.575C340.415,149.673 334.886,153.025 329.219,156.133C335.153,152.909 341.057,149.633 346.922,146.285C348.578,145.34 350.14,144.146 352.093,143.784C353.414,144.441 353.944,145.547 353.91,146.973C353.349,148.341 352.035,148.845 350.891,149.498C344.805,152.97 338.709,156.427 332.574,159.815C332.317,159.957 332.046,160.08 331.805,160.473C338.295,156.847 344.612,153.18 351.016,149.667C352.169,149.034 353.221,148.076 354.699,148.268C355.858,149.037 356.455,150.1 356.398,151.506C355.539,152.931 354.003,153.466 352.665,154.208C347.014,157.342 341.448,160.63 335.745,163.671C335.243,163.939 334.706,164.175 334.047,164.903C340.905,161.071 347.352,157.269 353.944,153.727C354.91,153.207 355.804,152.461 357.009,152.519C358.296,153.2 358.849,154.28 358.752,155.715C358.071,157.091 356.683,157.585 355.473,158.275C349.156,161.876 342.805,165.415 336.523,169.076C343.325,165.412 350,161.52 356.74,157.746C357.575,157.279 358.343,156.626 359.405,156.751C360.605,157.473 361.317,158.475 361.238,159.932C360.884,160.934 359.991,161.365 359.159,161.845C352.405,165.747 345.528,169.434 338.817,173.416C345.026,170.139 351.083,166.589 357.213,163.168C358.681,162.348 360.009,161.149 361.847,161.159C362.874,161.994 364.219,162.474 364.819,163.796C364.504,164.639 363.746,164.991 363.034,165.388C355.895,169.373 348.759,173.364 341.689,177.474C350.28,172.749 358.765,167.834 367.417,163.216C368.072,162.975 368.735,163.055 369.399,163.162C366.476,158.402 363.828,153.485 361.091,148.621C356.425,140.332 351.735,132.055 347.058,123.773C346.523,122.826 345.762,121.905 346.13,120.671Z" style="fill:rgb(237,242,215);fill-rule:nonzero;"/>
        <path d="M311.328,141.972C318.328,154.315 325.334,166.654 332.328,179C336.138,185.724 339.93,192.46 343.73,199.19C344.769,200.645 345.941,199.952 347.061,199.357C350.876,197.329 354.601,195.138 358.365,193.018C365.374,189.071 372.372,185.105 379.374,181.145C381.619,179.875 383.873,179.357 386.434,180.04C388.616,180.622 391.266,179.055 391.8,176.841C392.351,174.553 393.679,173.084 395.676,171.951C406.365,165.885 417.101,159.904 427.766,153.797C428.951,153.118 430.48,152.663 430.298,150.801C421.658,135.447 413.011,120.097 404.382,104.737C402.238,100.922 400.153,97.074 398.04,93.241C399.901,91.869 401.027,92.357 402.158,94.381C412.582,113.044 423.099,131.655 433.581,150.285C434.936,152.693 434.859,152.983 432.357,154.393C421.33,160.606 410.309,166.829 399.245,172.974C397.587,173.896 396.631,174.769 397.005,176.912C397.359,178.938 396.455,180.7 394.544,181.78C392.599,182.878 390.699,184.064 388.715,185.085C386.871,186.033 383.982,185.581 382.749,183.982C381.902,182.884 381.307,183.104 380.364,183.641C373.701,187.442 367.026,191.22 360.342,194.983C355.475,197.723 350.54,200.347 345.734,203.189C343.763,204.354 342.791,203.971 341.724,202.032C337.738,194.789 333.606,187.626 329.537,180.429C323.161,169.149 316.842,157.837 310.375,146.61C309.178,144.532 309.124,143.135 311.328,141.972Z" style="fill:rgb(184,165,15);fill-rule:nonzero;"/>
        <path d="M381.776,178.315C381.985,177.379 381.645,176.62 381.187,175.796C375.956,166.393 370.489,157.125 365.353,147.666C360.854,139.38 355.992,131.291 351.296,123.112C350.515,121.752 349.859,120.336 349.496,118.799C350.881,117.794 352.366,118.175 353.846,118.486C355.055,117.957 355.417,119.104 356.096,119.623C358.855,125.125 362.008,130.408 365.009,135.775C368.264,141.595 371.596,147.376 374.818,153.217C379.071,160.926 383.47,168.554 387.813,176.214C388.25,176.985 388.732,177.73 389.194,178.488C389.476,179.31 388.76,179.142 388.517,179.016C386.517,177.977 384.463,178.042 382.358,178.566C382.156,178.616 381.944,178.464 381.776,178.315Z" style="fill:rgb(213,219,196);fill-rule:nonzero;"/>
        <path d="M356.096,119.623C355.068,119.794 354.657,118.744 353.846,118.486C354.254,117.713 355.11,117.76 355.765,117.44C355.875,118.167 355.986,118.895 356.096,119.623Z" style="fill:rgb(90,106,178);fill-rule:nonzero;"/>
        <path d="M381.776,178.315C384.244,177.068 386.648,176.921 388.943,178.724C388.976,178.75 389.087,178.728 389.122,178.691C389.167,178.642 389.171,178.556 389.193,178.487C389.026,175.369 390.508,173.428 393.226,171.922C405.088,165.347 416.87,158.628 428.674,151.95C429.248,151.625 429.758,151.186 430.298,150.801C431.732,152.324 430.729,153.018 429.391,153.769C418.099,160.114 406.839,166.516 395.536,172.842C393.747,173.843 392.763,175.222 392.458,177.2C392.106,179.48 388.388,181.621 386.28,180.789C384.354,180.029 382.533,180.192 380.714,181.219C369.501,187.555 358.242,193.809 347.077,200.227C345.241,201.283 344.335,201.202 343.73,199.19C344.45,199.768 345.008,199.172 345.54,198.873C357.454,192.175 369.356,185.456 381.258,178.737C381.449,178.629 381.604,178.457 381.776,178.315Z" style="fill:rgb(213,219,196);fill-rule:nonzero;"/>
        <path d="M342.766,130.648C343.261,131.4 344.095,132.159 342.546,133.015C335.705,136.795 328.894,140.63 322.089,144.473C321.22,144.963 320.665,145.017 320.099,144.029C319.505,142.991 320.018,142.514 320.799,142.072C327.535,138.258 334.273,134.445 341.018,130.647C341.521,130.364 342.082,130.022 342.766,130.648Z" style="fill:rgb(213,219,196);fill-rule:nonzero;"/>
        <path d="M375.999,169.074C376.665,170.203 375.771,170.48 375.069,170.877C371.056,173.15 367.052,175.439 363.036,177.706C357.531,180.813 352.024,183.917 346.496,186.982C345.961,187.279 345.262,188.271 344.649,187.151C344.061,186.076 345.244,185.919 345.77,185.619C355.141,180.282 364.535,174.986 373.935,169.7C374.552,169.353 375.172,168.856 375.999,169.074Z" style="fill:rgb(213,219,196);fill-rule:nonzero;"/>
        <path d="M342.318,181.947C344.787,180.509 347.078,179.13 349.409,177.823C356.924,173.61 364.451,169.42 371.978,165.23C372.501,164.939 373.055,164.133 373.653,165.051C374.251,165.969 373.321,166.212 372.808,166.502C364.409,171.267 355.998,176.008 347.587,180.753C346.229,181.519 344.87,182.285 343.498,183.026C343.125,183.228 342.679,183.511 342.316,183.007C342.017,182.592 342.041,182.174 342.318,181.947Z" style="fill:rgb(213,219,196);fill-rule:nonzero;"/>
        <path d="M378.496,173.446C379.199,174.684 378.107,174.877 377.476,175.236C373.725,177.375 369.954,179.479 366.189,181.593C360.54,184.764 354.894,187.941 349.235,191.093C348.643,191.424 347.858,192.306 347.319,191.431C346.686,190.403 347.9,190.093 348.541,189.73C357.937,184.412 367.344,179.114 376.77,173.849C377.257,173.577 377.78,172.819 378.496,173.446Z" style="fill:rgb(213,219,196);fill-rule:nonzero;"/>
        <path d="M364.762,163.54C365.708,163.298 366.629,163.477 367.545,163.711C358.939,168.589 350.336,173.472 341.719,178.331C341.191,178.629 340.436,179.308 339.969,178.489C339.429,177.543 340.449,177.28 341.057,176.937C348.956,172.467 356.86,168.005 364.762,163.54Z" style="fill:rgb(213,219,196);fill-rule:nonzero;"/>
        <path d="M360.924,159.942C361.234,160.444 361.544,160.946 361.854,161.448C354.773,165.396 347.693,169.346 340.611,173.293C340.026,173.619 339.431,173.927 338.837,174.237C338.348,174.492 337.845,175.118 337.342,174.289C336.855,173.489 337.549,173.261 338.052,172.975C341.093,171.251 344.142,169.541 347.179,167.809C351.764,165.194 356.342,162.565 360.924,159.942Z" style="fill:rgb(213,219,196);fill-rule:nonzero;"/>
        <path d="M348.859,138.546C349.11,138.981 349.361,139.415 349.613,139.85C342.055,144.144 334.496,148.435 326.942,152.733C326.386,153.05 325.822,153.739 325.281,152.806C324.761,151.909 325.573,151.675 326.143,151.354C333.716,147.085 341.287,142.815 348.859,138.546Z" style="fill:rgb(213,219,196);fill-rule:nonzero;"/>
        <path d="M356.152,151.471C356.413,151.903 356.674,152.334 356.934,152.765C349.421,157.006 341.906,161.247 334.393,165.488C333.817,165.813 333.131,166.37 332.646,165.577C332.104,164.69 333.073,164.467 333.596,164.171C341.108,159.926 348.632,155.701 356.152,151.471Z" style="fill:rgb(213,219,196);fill-rule:nonzero;"/>
        <path d="M351.235,142.769C351.477,143.207 351.719,143.645 351.962,144.084C345.914,147.559 339.868,151.039 333.814,154.503C332.333,155.351 330.828,156.158 329.322,156.961C328.792,157.244 328.204,158.026 327.652,157.072C327.112,156.138 328.078,155.913 328.573,155.629C333.148,153.007 337.752,150.435 342.341,147.838C345.31,146.157 348.27,144.46 351.235,142.769Z" style="fill:rgb(213,219,196);fill-rule:nonzero;"/>
        <path d="M353.615,147C353.924,147.509 354.233,148.018 354.542,148.527C347.095,152.692 339.652,156.861 332.2,161.016C331.603,161.349 330.847,162.181 330.3,161.281C329.755,160.388 330.801,160.067 331.405,159.723C338.495,155.679 345.594,151.65 352.688,147.613C353.009,147.43 353.306,147.205 353.615,147Z" style="fill:rgb(213,219,196);fill-rule:nonzero;"/>
        <path d="M358.543,155.712C358.794,156.141 359.044,156.57 359.295,156.998C351.683,161.339 344.071,165.679 336.46,170.021C335.957,170.308 335.413,170.855 334.978,170.022C334.405,168.924 335.543,168.76 336.062,168.463C342.377,164.845 348.726,161.286 355.064,157.709C356.228,157.051 357.384,156.378 358.543,155.712Z" style="fill:rgb(213,219,196);fill-rule:nonzero;"/>
        <path d="M322.869,147.587C323.694,147.088 324.506,146.566 325.345,146.093C331.425,142.671 337.5,139.24 343.61,135.872C344.115,135.593 344.851,134.513 345.433,135.609C345.88,136.447 344.973,136.876 344.324,137.24C337.659,140.984 330.997,144.735 324.313,148.447C323.885,148.685 323.387,149.432 322.781,148.707C322.489,148.357 322.329,147.911 322.869,147.587Z" style="fill:rgb(213,219,196);fill-rule:nonzero;"/>
        <path d="M346.13,120.671C354.192,134.931 362.253,149.192 370.338,163.493C369.804,163.758 368.143,164.496 366.009,164.102C363.704,163.676 362.365,162.209 361.996,161.774C359.457,157.819 356.921,153.697 354.405,149.406C349.226,140.571 344.695,131.972 340.723,123.731C342.414,122.513 344.234,121.524 346.13,120.671Z" style="fill:rgb(241,91,34);fill-rule:nonzero;"/>
        <path d="M192.976,98.146C194.689,101.212 196.401,104.278 198.113,107.343C198.519,107.964 198.627,108.654 198.5,109.364C197.97,112.323 199.381,114.196 201.619,115.99C204.682,118.446 207.633,118.986 210.943,116.728C215.878,116.354 220.561,117.893 225.316,118.752C239.469,121.31 253.627,123.846 267.773,126.444C275.643,127.888 283.515,129.314 291.391,130.724C292.489,130.921 293.595,131.075 294.523,131.773C295.81,132.053 297.088,132.394 298.387,132.598C299.657,132.798 300.668,133.303 300.353,134.717C300.071,135.988 298.92,135.939 297.853,135.748C291.349,134.585 284.843,133.427 278.339,132.265C257.428,128.53 236.518,124.806 215.616,121.032C213.862,120.716 212.319,120.642 210.671,121.597C204.335,125.269 192.817,117.063 194.204,109.842C194.558,107.997 194.302,106.434 192.996,105.072C190.121,102.953 188.785,100.014 188.447,96.544C176.442,75.161 164.437,53.779 152.434,32.396C151.878,31.404 151.186,30.234 152.457,29.448C153.89,28.563 154.615,29.721 155.24,30.866C155.918,32.107 156.678,33.302 157.403,34.517C158.552,35.068 159.236,36.047 159.833,37.12C169.241,54.03 178.848,70.831 188.132,87.811C189.019,90.211 190.708,92.166 191.82,94.442C192.395,95.622 193.157,96.734 192.976,98.146Z" style="fill:rgb(241,34,215);fill-rule:nonzero;"/>
        <path d="M188.447,96.544C189.963,99.386 191.48,102.229 192.996,105.072C189.78,109.589 186.565,114.106 183.197,118.839C181.935,117.045 183.121,114.537 181.599,113.891C180.228,113.309 178.293,114.052 175.817,114.286C180.28,108.017 184.363,102.28 188.447,96.544Z" style="fill:rgb(90,106,178);fill-rule:nonzero;"/>
        <path d="M168.753,38.1C168.257,37.448 167.769,36.862 166.878,36.669C163.712,35.987 160.56,35.239 157.403,34.518C167.489,52.568 177.575,70.617 187.661,88.666C191.726,88.934 194.699,86.913 197.284,84.077C189.635,67.597 179.733,52.514 168.753,38.1Z" style="fill:rgb(239,242,215);fill-rule:nonzero;"/>
        <path d="M293.423,130.022L293.423,130.023C291.351,125.316 288.344,122.107 282.772,121.311C277.572,120.569 272.528,118.769 267.389,117.545C251.068,113.656 234.753,109.719 217.945,108.469C217.282,108.42 216.459,108.772 215.619,107.827C223.423,107.228 230.785,107.984 238.127,109.129C254.534,111.687 270.604,115.681 286.491,120.462C287.325,120.713 288.571,121.671 289.054,120.134C289.417,118.982 288.168,119.024 287.453,118.814C267.341,112.908 247.121,107.513 226.12,105.782C225.567,105.737 224.691,106.166 224.432,104.989C225.388,104.873 226.285,104.734 227.187,104.657C241.168,103.459 255.025,104.841 268.84,106.786C274.977,107.651 281.069,108.845 287.186,109.857C287.897,109.974 288.926,110.522 289.123,109.212C289.277,108.184 288.303,108.243 287.675,108.03C287.389,107.933 287.076,107.918 286.776,107.861C270.276,104.686 253.695,102.228 236.836,102.318C233.152,102.337 229.469,102.536 225.786,102.653C226.489,102.072 227.232,101.839 227.992,101.693C239.738,99.436 251.622,98.918 263.536,99.087C270.956,99.192 278.371,99.677 285.79,99.943C286.469,99.967 287.56,100.578 287.765,99.286C288.023,97.661 286.663,98.187 285.904,98.098C284.188,97.898 282.461,97.785 280.735,97.695C262.418,96.752 244.122,96.439 226.018,100.132C222.62,100.825 219.302,101.909 215.273,102.994C221.107,98.258 226.703,94.429 232.523,90.905C245.947,82.776 260.045,75.996 274.451,69.821C275.278,69.467 276.855,69.36 276.221,67.924C275.676,66.686 274.615,67.713 273.874,68.015C265.676,71.356 257.656,75.096 249.77,79.108C236.149,86.038 222.932,93.623 211.031,104.116C212.273,100.127 213.548,96.704 214.402,93.177C219.071,73.888 219.21,54.298 218.069,34.635C217.998,33.417 217.892,32.201 217.788,30.985C217.746,30.483 217.717,29.894 217.027,29.902C216.348,29.91 215.852,30.24 215.885,31.019C215.91,31.628 215.979,32.236 216.018,32.844C217.048,48.916 217.042,64.962 214.782,80.949C214.527,82.759 214.197,84.559 213.868,86.358C213.562,88.032 213.212,89.698 212.882,91.368C213.701,71.356 211.663,51.663 208.471,32.054C208.308,31.057 208.869,29.04 207.043,29.316C205.435,29.559 206.541,31.194 206.655,32.132C207.475,38.896 208.575,45.629 209.261,52.405C210.79,67.497 211.939,82.611 209.507,97.728C209.17,99.823 208.953,101.993 207.588,104.089C206.591,99.712 205.822,95.62 204.721,91.619C199.253,71.737 191.085,52.887 182.545,34.188C182.157,33.341 182.138,31.404 180.613,32.097C179.154,32.761 180.572,34.036 180.87,34.983C181.204,36.041 181.777,37.024 182.235,38.044C189.286,53.73 195.96,69.567 201.1,86.002C202.441,90.289 203.738,94.604 203.922,99.218C203.075,97.204 202.229,95.191 201.382,93.177C197.8,93.682 194.639,94.904 192.735,98.257C193.516,102.015 195.373,105.199 197.915,108.019C202.04,110.195 206.276,112.201 209.584,115.632C209.743,115.724 209.907,115.794 210.072,115.863C210.087,116.543 210.795,116.854 211.409,117.216C226.811,119.932 242.212,122.662 257.617,125.362C269.916,127.517 282.221,129.637 294.523,131.773C294.156,131.189 293.789,130.606 293.423,130.022Z" style="fill:rgb(239,242,215);fill-rule:nonzero;"/>
        <path d="M361.53,427.902C361.03,428.253 360.722,428.537 360.359,428.681C360.257,428.721 359.991,428.346 359.801,428.161C360.106,427.899 360.386,427.589 360.733,427.403C360.836,427.348 361.125,427.638 361.53,427.902Z" style="fill:rgb(189,203,232);fill-rule:nonzero;"/>
        <path d="M365.337,441.816C365.67,442.169 366.003,442.361 366.04,442.599C366.114,443.068 365.718,443.171 365.325,443.17C364.941,443.169 364.518,443.093 364.592,442.62C364.631,442.371 364.989,442.173 365.337,441.816Z" style="fill:rgb(189,203,232);fill-rule:nonzero;"/>
        <path d="M360.285,456.088C360.626,456.55 360.89,456.833 361.04,457.168C361.074,457.243 360.599,457.671 360.551,457.64C360.234,457.436 359.931,457.176 359.719,456.868C359.672,456.8 360,456.471 360.285,456.088Z" style="fill:rgb(189,203,232);fill-rule:nonzero;"/>
        <path d="M363.596,449.996C363.387,450.144 363.123,450.452 362.979,450.405C362.696,450.31 362.48,450.017 362.235,449.805C362.406,449.63 362.593,449.298 362.743,449.315C363.039,449.346 363.314,449.571 363.598,449.715C363.597,449.809 363.597,449.903 363.596,449.996Z" style="fill:rgb(189,203,232);fill-rule:nonzero;"/>
        <path d="M363.469,435.523C363.187,435.669 362.913,435.896 362.618,435.928C362.466,435.944 362.277,435.613 362.104,435.441C362.347,435.227 362.563,434.933 362.846,434.835C362.989,434.786 363.256,435.093 363.466,435.239C363.467,435.334 363.468,435.428 363.469,435.523Z" style="fill:rgb(189,203,232);fill-rule:nonzero;"/>
    </g>
</svg>
