<?xml version="1.0" encoding="UTF-8" standalone="no"?>
<!DOCTYPE svg PUBLIC "-//W3C//DTD SVG 1.1//EN" "http://www.w3.org/Graphics/SVG/1.1/DTD/svg11.dtd">
<svg width="100%" height="100%" viewBox="0 0 3500 2000" version="1.1" xmlns="http://www.w3.org/2000/svg" xmlns:xlink="http://www.w3.org/1999/xlink" xml:space="preserve" xmlns:serif="http://www.serif.com/" style="fill-rule:evenodd;clip-rule:evenodd;stroke-linejoin:round;stroke-miterlimit:2;">
    <g>
        <g transform="matrix(1,0,0,1,28.4553,4.74255)">
            <rect x="0" y="0" width="3500" height="2000" style="fill:white;fill-rule:nonzero;"/>
        </g>
        <path d="M1590.57,677.071L1576.55,681.373L1567.14,659.584L1545.87,663.346L1536.16,648.191L1528.48,653.106L1541.47,673.376L1561.63,669.81L1571.42,692.478L1592.52,686.004L1590.57,677.071Z" style="fill:rgb(80,191,165);fill-rule:nonzero;"/>
        <g transform="matrix(1,0,0,1,-213.415,-815.718)">
            <path d="M2489.48,1460.78L2475.46,1465.08L2466.05,1443.29L2444.78,1447.06L2435.07,1431.9L2427.4,1436.82L2440.38,1457.08L2460.54,1453.52L2470.33,1476.19L2491.43,1469.71L2489.48,1460.78Z" style="fill:rgb(80,191,165);fill-rule:nonzero;"/>
        </g>
        <path d="M1504.2,1718.75C1504.2,1718.75 1429.4,1465.23 1423.4,1409.31C1417.4,1353.38 1459.23,1370.71 1459.23,1370.71C1459.23,1370.71 1424.04,1264.15 1449.48,1238.86C1474.93,1213.57 1497.88,1260.71 1497.88,1260.71C1497.88,1260.71 1505.58,1131.35 1532.71,1131.31C1583.23,1131.22 1582.24,1272.38 1582.24,1272.38C1582.24,1272.38 1595.13,1217.12 1622.19,1232.27C1662.99,1255.12 1604.48,1365.88 1604.48,1365.88C1604.48,1365.88 1656.47,1365.91 1674.73,1392.13C1707.5,1439.16 1504.2,1718.75 1504.2,1718.75Z" style="fill:rgb(60,108,97);fill-rule:nonzero;"/>
        <path d="M1528.65,1685.2C1528.65,1685.2 1313.02,1649.14 1266.12,1610.93C1219.22,1572.72 1265.64,1555.5 1265.64,1555.5C1265.64,1555.5 1157.32,1499.97 1158.57,1462.21C1159.83,1424.45 1213.64,1443.65 1213.64,1443.65C1213.64,1443.65 1122.37,1339.57 1143.98,1319.8C1184.22,1282.99 1289.74,1391.18 1289.74,1391.18C1289.74,1391.18 1258.41,1339.73 1291.4,1331.58C1341.17,1319.31 1377.89,1446.17 1377.89,1446.17C1377.89,1446.17 1368.56,1396.07 1402.87,1402.75C1464.44,1414.72 1528.65,1685.2 1528.65,1685.2Z" style="fill:rgb(32,151,123);fill-rule:nonzero;"/>
        <path d="M1402.87,1402.75C1368.48,1396.53 1377.89,1446.17 1377.89,1446.17C1377.89,1446.17 1341.17,1319.31 1291.4,1331.58C1258.41,1339.73 1289.74,1391.18 1289.74,1391.18C1289.74,1391.18 1184.22,1282.99 1143.98,1319.8L1527.93,1685.26C1521.09,1650.35 1460.54,1413.17 1402.87,1402.75Z" style="fill:rgb(25,107,88);fill-rule:nonzero;"/>
        <path d="M1590,1714.94C1590,1714.94 1476.44,1599.46 1419.26,1587.43C1362.07,1575.41 1372.36,1616.09 1372.36,1616.09C1372.36,1616.09 1258.9,1516.87 1232.6,1540.91C1206.31,1564.95 1234.75,1588.16 1234.75,1588.16C1234.75,1588.16 1140.24,1571.42 1126.72,1602.43C1105.93,1650.08 1261.36,1676.02 1261.36,1676.02C1261.36,1676.02 1196.22,1680.54 1211.33,1710.42C1234.11,1755.48 1590,1714.94 1590,1714.94Z" style="fill:rgb(53,83,137);fill-rule:nonzero;"/>
        <path d="M1126.72,1602.43C1140.24,1571.42 1234.75,1588.16 1234.75,1588.16C1234.75,1588.16 1206.31,1564.95 1232.6,1540.91C1258.9,1516.87 1368.83,1602.6 1368.83,1602.6C1368.83,1602.6 1342.91,1553.05 1400.09,1565.08C1457.28,1577.11 1590,1714.94 1590,1714.94L1126.72,1602.43Z" style="fill:rgb(70,110,182);fill-rule:nonzero;"/>
        <path d="M1770.79,523.905C1732.56,530.195 1721.21,580.363 1752.99,602.803C1758.7,606.833 1762.65,612.895 1764.33,619.677L1770.11,643.013C1771.71,649.444 1777.97,653.572 1784.51,652.496L1798.99,650.113C1805.53,649.037 1810.15,643.119 1809.59,636.517C1807.58,612.424 1805.1,603.685 1812.93,592.939C1835.84,561.505 1809.02,517.614 1770.79,523.905Z" style="fill:rgb(247,204,127);fill-rule:nonzero;"/>
        <path d="M1792.54,557.617C1791.35,560.355 1791.8,563.862 1792.08,567.895C1795.21,566.113 1798.84,563.885 1800.02,560.621C1800.85,558.333 1799.92,555.097 1797.59,554.501C1797.33,554.437 1793.38,555.696 1792.54,557.617ZM1757.11,572.416C1759.06,574.514 1762.32,575.437 1767.08,575.218C1766.26,571.711 1765.04,568.556 1762.63,566.316C1757.19,561.261 1753.85,568.896 1757.11,572.416ZM1774.69,625.897C1772.2,605.256 1768.71,583.464 1767.52,577.283C1745.61,578.492 1753.94,555.397 1764.05,564.788C1766.93,567.464 1768.29,571.094 1769.19,575.07C1776.46,574.415 1783.58,572.337 1790.06,568.988C1789.71,563.898 1789.21,560.041 1790.63,556.783C1792.78,551.863 1799.01,550.523 1801.55,555.318C1802.5,557.118 1802.67,559.421 1801.98,561.328C1800.51,565.398 1796.09,568.087 1792.23,570.193C1793.39,586.603 1794.98,603.139 1796.99,619.424L1794.93,619.68C1792.95,603.658 1791.37,587.393 1790.22,571.245C1783.78,574.445 1776.78,576.45 1769.61,577.125C1771.11,585.027 1774.42,606.269 1776.76,625.648L1774.69,625.897Z" style="fill:rgb(250,224,178);fill-rule:nonzero;"/>
        <path d="M1764.16,619.1C1764.21,619.294 1764.28,619.481 1764.33,619.677L1770.11,643.013C1771.71,649.444 1777.97,653.572 1784.51,652.496L1798.99,650.113C1805.53,649.037 1810.15,643.119 1809.59,636.517C1808.7,625.799 1807.71,618.124 1807.58,611.955L1764.16,619.1Z" style="fill:rgb(150,217,201);fill-rule:nonzero;"/>
        <path d="M1742.45,506.479L1731.02,485.615C1729.92,483.596 1730.66,481.062 1732.68,479.956C1734.7,478.85 1737.23,479.59 1738.34,481.609L1749.77,502.474C1750.87,504.493 1750.13,507.027 1748.11,508.133C1746.08,509.245 1743.55,508.488 1742.45,506.479Z" style="fill:rgb(250,224,178);fill-rule:nonzero;"/>
        <path d="M1717.47,556.948L1692.55,554.77C1690.26,554.569 1688.56,552.547 1688.77,550.253C1688.97,547.96 1690.99,546.262 1693.28,546.463L1718.2,548.642C1720.49,548.842 1722.19,550.865 1721.99,553.158C1721.79,555.451 1719.77,557.147 1717.47,556.948Z" style="fill:rgb(250,224,178);fill-rule:nonzero;"/>
        <path d="M1692.77,633.333C1691.15,631.695 1691.16,629.056 1692.8,627.438C1698.93,621.386 1705.66,615.892 1712.82,611.108C1714.73,609.828 1717.32,610.344 1718.6,612.258C1719.88,614.173 1719.37,616.762 1717.45,618.041C1710.73,622.531 1704.41,627.688 1698.66,633.368C1697.03,634.979 1694.39,634.979 1692.77,633.333Z" style="fill:rgb(250,224,178);fill-rule:nonzero;"/>
        <path d="M1804.01,505.352C1801.79,504.757 1800.47,502.472 1801.06,500.248C1803.88,489.686 1805.61,478.793 1806.2,467.876C1806.33,465.577 1808.29,463.81 1810.59,463.938C1812.89,464.061 1814.65,466.025 1814.53,468.324C1813.91,479.816 1812.09,491.282 1809.12,502.4C1808.52,504.638 1806.22,505.945 1804.01,505.352Z" style="fill:rgb(250,224,178);fill-rule:nonzero;"/>
        <path d="M1829.67,537.38C1829.01,535.175 1830.25,532.85 1832.46,532.185L1858.36,524.378C1860.57,523.714 1862.89,524.963 1863.56,527.167C1864.22,529.372 1862.97,531.697 1860.77,532.362L1834.87,540.168C1832.67,540.83 1830.34,539.589 1829.67,537.38Z" style="fill:rgb(250,224,178);fill-rule:nonzero;"/>
        <path d="M1872.22,606.302C1871.85,606.302 1871.47,606.252 1871.09,606.146C1862.11,603.623 1853.39,600.125 1845.15,595.749C1843.12,594.668 1842.35,592.144 1843.43,590.111C1844.51,588.078 1847.03,587.306 1849.06,588.386C1856.77,592.482 1864.94,595.757 1873.35,598.119C1875.56,598.742 1876.85,601.044 1876.23,603.261C1875.71,605.1 1874.04,606.302 1872.22,606.302Z" style="fill:rgb(250,224,178);fill-rule:nonzero;"/>
        <g transform="matrix(1,0,0,1,-379.404,-47.4255)">
            <path d="M2459.64,684.566L2454.27,706.199L2418.5,701.401L2406.75,732.062L2379.4,732.847L2379.8,746.692L2416.37,745.643L2427.52,716.586L2464.72,721.577L2472.8,689.024L2459.64,684.566Z" style="fill:rgb(171,127,244);fill-rule:nonzero;"/>
        </g>
        <path d="M2141.01,1721.59L1512.36,1721.59C1488.35,1721.59 1468.89,1701.4 1468.89,1676.5L1468.89,1649.68C1468.89,1624.78 1488.35,1604.59 1512.36,1604.59L2141.01,1604.59C2112.26,1637.19 2111.76,1687.01 2139.86,1720.23L2141.01,1721.59Z" style="fill:rgb(183,66,171);fill-rule:nonzero;"/>
        <path d="M2131.31,1618L1782.62,1618C1758.61,1618 1739.15,1638.19 1739.15,1663.09C1739.15,1688 1758.61,1708.18 1782.62,1708.18L2131.34,1708.18C2115.04,1680.52 2115.07,1645.59 2131.31,1618Z" style="fill:rgb(250,224,178);fill-rule:nonzero;"/>
        <path d="M1920.16,1523.33C1921.07,1521.62 1919.68,1519.63 1917.57,1519.63L1584.93,1519.63C1558.85,1519.63 1537.72,1538.65 1537.72,1562.12C1537.72,1585.58 1558.85,1604.61 1584.93,1604.61L1917.66,1604.61C1919.78,1604.61 1921.18,1602.61 1920.25,1600.89C1907.08,1576.33 1907.11,1547.78 1920.16,1523.33Z" style="fill:rgb(156,74,62);fill-rule:nonzero;"/>
        <path d="M1918.06,1527.54L1753.2,1527.54C1722.6,1527.54 1697.8,1543.48 1697.8,1563.14C1697.8,1582.81 1722.6,1598.75 1753.2,1598.75L1919.14,1598.75C1907.8,1576.09 1907.49,1550.29 1918.06,1527.54Z" style="fill:rgb(247,204,127);fill-rule:nonzero;"/>
        <path d="M1875.48,1544.42L1854.01,1544.42C1849.4,1544.42 1845.65,1545.97 1845.65,1547.88L1845.65,1548.19L1875.48,1548.19L1875.48,1544.42Z" style="fill:rgb(183,87,66);fill-rule:nonzero;"/>
        <path d="M1893.8,1553.1C1893.8,1548.3 1888.19,1544.42 1881.27,1544.42L1853.72,1544.42C1858.97,1544.42 1863.22,1547.37 1863.22,1551L1863.09,1644.09L1878.31,1632.12L1893.83,1644.09L1893.8,1553.1Z" style="fill:rgb(244,116,88);fill-rule:nonzero;"/>
        <path d="M1859,1516.57L1665.45,1516.57C1648.29,1516.57 1634.38,1500.05 1634.38,1479.68C1634.38,1459.31 1648.29,1442.8 1665.45,1442.8L1859,1442.8C1844.21,1463.25 1843.63,1493.24 1857.62,1514.47L1859,1516.57Z" style="fill:rgb(250,224,178);fill-rule:nonzero;"/>
        <path d="M1634.4,1479.68C1634.4,1459.31 1648.64,1442.8 1666.21,1442.8L1862.69,1442.8C1863.61,1442.8 1864.35,1441.93 1864.34,1440.87C1864.33,1439.82 1863.59,1438.98 1862.69,1438.98L1550.99,1438.98C1531.61,1438.98 1515.89,1457.2 1515.89,1479.68C1515.89,1502.17 1531.61,1520.39 1550.99,1520.39L1862.69,1520.39C1863.59,1520.39 1864.33,1519.54 1864.34,1518.5C1864.35,1517.43 1863.6,1516.57 1862.69,1516.57L1666.21,1516.57C1648.64,1516.57 1634.4,1500.05 1634.4,1479.68Z" style="fill:rgb(70,110,182);fill-rule:nonzero;"/>
        <path d="M1825.2,1460.92L1803.73,1460.92C1799.12,1460.92 1795.37,1462.45 1795.37,1464.32L1795.37,1464.63L1825.2,1464.63L1825.2,1460.92Z" style="fill:rgb(24,70,85);fill-rule:nonzero;"/>
        <path d="M1843.52,1469.44C1843.52,1464.74 1837.91,1460.92 1830.99,1460.92L1803.44,1460.92C1808.69,1460.92 1812.94,1463.82 1812.94,1467.38L1812.81,1558.67L1828.03,1546.93L1843.55,1558.67L1843.52,1469.44Z" style="fill:rgb(60,143,124);fill-rule:nonzero;"/>
        <path d="M2167.38,897.047L2195.95,889.528L2176.59,1147.83L2142.31,1148.97L2159.6,906.432C2159.92,901.96 2163.05,898.188 2167.38,897.047Z" style="fill:rgb(24,70,85);fill-rule:nonzero;"/>
        <path d="M2179.15,1155.19C2178.51,1155.25 2177.86,1155.24 2177.19,1155.16C2171.52,1154.49 2167.32,1148.85 2167.81,1142.56L2186.83,899.68C2187.32,893.387 2192.32,888.828 2198,889.501C2203.67,890.172 2207.87,895.815 2207.38,902.108L2188.36,1144.99C2187.92,1150.54 2183.97,1154.75 2179.15,1155.19Z" style="fill:rgb(247,127,141);fill-rule:nonzero;"/>
        <path d="M1916.18,1168.13C1916.19,1168.31 1916.2,1168.48 1916.22,1168.66C1917.11,1178.54 1924.77,1185.94 1933.31,1185.17L2174.62,1163.57C2183.17,1162.81 2189.37,1154.18 2188.48,1144.3C2188.44,1143.88 2188.39,1143.47 2188.32,1143.06L1916.18,1168.13Z" style="fill:rgb(247,127,132);fill-rule:nonzero;"/>
        <path d="M2084.21,1429.01C2068.41,1437.77 2020.11,1422.41 2020.11,1421.02C2019.42,1434.22 1966.03,1563.42 1966.03,1563.42L1966.07,1603.17C1966.07,1603.17 2076.08,1608.41 2074.5,1598.69C2072.92,1588.97 2067,1595.29 2045.06,1576.93C2043.11,1575.3 2012.3,1568.15 2020.63,1549.91C2037.43,1513.18 2073.09,1451.94 2084.21,1429.01Z" style="fill:rgb(247,164,145);fill-rule:nonzero;"/>
        <path d="M1962.45,1604.59L2082.88,1604.62C2087.22,1604.18 2088.24,1600.64 2086.7,1598.49C2083.54,1594.07 2060.46,1583.63 2044.95,1576.71C2017.93,1579.86 1970.43,1569.47 1966.08,1563.31C1954.64,1578.63 1960.03,1604.09 1962.45,1604.59Z" style="fill:rgb(60,72,143);fill-rule:nonzero;"/>
        <path d="M1936.04,1336.25C1934.41,1331.36 2039.72,1286.67 2044.43,1291.78C2052.77,1300.81 1987.45,1470.35 1987.45,1470.35L2062.5,1493.28C2062.5,1493.28 2140.51,1297.41 2137.25,1261.58C2134,1225.76 2094.92,1185.05 2010.24,1211.1C1925.56,1237.16 1936.04,1336.25 1936.04,1336.25Z" style="fill:rgb(53,83,137);fill-rule:nonzero;"/>
        <path d="M2154.08,1451.29C2136.3,1448.06 2113.26,1447.14 2094.81,1446.82C2096.99,1463.24 2107.54,1547.45 2105.61,1552.63C2097.8,1573.59 2080.46,1583.4 2080.46,1583.4C2080.46,1583.4 2162.23,1657.18 2167.16,1648.66C2172.1,1640.14 2163.52,1641.28 2158.18,1613.17C2157.71,1610.67 2145.88,1571.43 2145.15,1550.27C2143.75,1509.91 2153.47,1473.71 2154.08,1451.29Z" style="fill:rgb(247,164,145);fill-rule:nonzero;"/>
        <path d="M2127.84,1175.79C2116.43,1169.71 2086.82,1169.49 2054.26,1171.6C1990.77,1175.72 1928.1,1188.21 1867.71,1208.22L1827.3,1221.6L1827.43,1180.17C1827.43,1180.17 1698.87,1158.66 1694.39,1190.52C1687.66,1238.5 1696.02,1335.92 1738.85,1357.66C1871.9,1425.2 2058.35,1250.07 2059.03,1272.98C2059.93,1303.75 2085.87,1418.26 2092.51,1468.39C2110.95,1468.71 2142.64,1468.7 2156.39,1465.54C2159.06,1367.33 2160.31,1193.12 2127.84,1175.79Z" style="fill:rgb(70,110,182);fill-rule:nonzero;"/>
        <path d="M2077.96,1585.13L2169.89,1658.55C2173.53,1660.97 2176.55,1658.88 2176.73,1656.24C2177.09,1650.81 2165.85,1628.11 2158.24,1612.93C2135.34,1598.24 2105.13,1559.95 2105.68,1552.43C2095.98,1560.61 2076.41,1583.2 2077.96,1585.13Z" style="fill:rgb(60,85,143);fill-rule:nonzero;"/>
        <path d="M1869.9,775.298C1866.82,747.072 1863.56,718.742 1840.17,698.053C1821.23,681.311 1797.16,678.475 1773.35,687.432C1705.9,712.812 1740.65,772.715 1654.65,833.111C1627.92,851.878 1598.47,864.723 1578.35,889.994C1550.18,925.366 1560.82,967.914 1586.48,996.321C1709.3,1132.24 1846.41,948.678 1856.26,904.614C1863.58,871.833 1871.89,793.468 1869.9,775.298Z" style="fill:rgb(34,54,74);fill-rule:nonzero;"/>
        <path d="M1844.96,934.022C1834.93,915.527 1824.6,900.851 1824.6,900.851C1814.19,882.353 1787.31,872.997 1787.31,872.997C1787.31,872.997 1778.32,873.179 1767.99,873.686C1767.35,875.398 1766.7,876.623 1766.04,877.115C1762.16,880.025 1739.92,876.268 1725.56,886.02C1677.41,927.292 1690.73,1127.34 1694.51,1190.52L1841.15,1191.91C1841.15,1191.91 1822.66,1055.96 1852.45,1021.03C1873.2,996.706 1859.85,961.456 1844.96,934.022Z" style="fill:rgb(191,92,80);fill-rule:nonzero;"/>
        <path d="M1778.87,805.32C1778.87,805.32 1770.81,862.883 1765.18,876.871C1759.55,890.859 1796.13,920.775 1826.57,929.855C1857.01,938.936 1817.27,898.957 1818.53,884.003C1819.79,869.05 1825.33,798.249 1825.33,798.249L1778.87,805.32Z" style="fill:rgb(247,164,145);fill-rule:nonzero;"/>
        <path d="M1823.79,818.553C1824.68,806.841 1825.33,798.249 1825.33,798.249L1778.87,805.32C1778.87,805.32 1777.7,812.082 1776.4,821.645C1795.24,832.571 1812.17,829.123 1823.79,818.553Z" style="fill:rgb(244,116,88);fill-rule:nonzero;"/>
        <path d="M1793.44,700.178C1793.44,700.178 1775.13,704.305 1763.82,721.559C1752.52,738.813 1744.76,789.607 1782,813.316C1819.23,837.027 1848.19,803.488 1848.67,770.776C1849.15,738.064 1842.14,694.409 1793.44,700.178Z" style="fill:rgb(229,156,140);fill-rule:nonzero;"/>
        <path d="M1857.2,760.539C1854.02,768.433 1847.72,773.331 1843.12,771.48C1838.52,769.63 1837.37,761.73 1840.55,753.837C1843.72,745.944 1850.02,741.045 1854.62,742.896C1859.22,744.747 1860.37,752.646 1857.2,760.539Z" style="fill:rgb(247,164,145);fill-rule:nonzero;"/>
        <path d="M1798.93,699.106C1798.93,699.106 1775.59,751.468 1755.08,756.145C1734.57,760.821 1734.87,787.168 1734.87,787.168C1734.87,787.168 1735.32,726.325 1754.55,712.369C1773.77,698.413 1798.93,699.106 1798.93,699.106Z" style="fill:rgb(19,55,91);fill-rule:nonzero;"/>
        <path d="M1763.23,767.027C1765.93,775.531 1763.46,783.903 1757.71,785.729C1751.96,787.553 1745.11,782.14 1742.41,773.636C1739.71,765.133 1742.18,756.76 1747.93,754.935C1753.68,753.11 1760.53,758.524 1763.23,767.027Z" style="fill:rgb(247,164,145);fill-rule:nonzero;"/>
        <path d="M2025.5,1145.05C2016.7,1141.87 2003.61,1141.47 2003.83,1140.31C2004.71,1135.61 2043.58,1150.69 2038.33,1143.83C2035.4,1140.01 2006.32,1126.48 1999.24,1128.71C1992.38,1130.88 1947.34,1143.52 1947.34,1143.52L1824.23,1114.67C1824.23,1114.67 1793.16,1044.06 1790.12,983.393C1764.44,986.866 1746.95,993.214 1724.63,1005.6C1735.39,1063.62 1761.56,1157.66 1790.49,1175.31C1802.65,1182.73 1947.95,1166.42 1947.95,1166.42C1947.95,1166.42 1979.97,1164.16 1985.2,1162.15C1989.17,1160.62 1999.39,1154.87 2004.94,1153.29C2017.58,1149.72 2040.08,1158.7 2040.15,1156.22C2040.2,1154.42 2034.49,1148.3 2025.5,1145.05Z" style="fill:rgb(247,164,145);fill-rule:nonzero;"/>
        <path d="M1790.88,918.574C1789.69,899.906 1782.62,881.883 1762.76,876.079C1750.45,872.482 1736.64,875.924 1726.8,883.958C1715.1,893.518 1711.83,908.851 1711.89,923.363C1712.01,956.316 1714.26,990.482 1720.28,1022.93C1742.6,1010.54 1768.66,1003.09 1794.35,999.615C1794.34,999.422 1792.44,943.245 1790.88,918.574Z" style="fill:rgb(217,212,150);fill-rule:nonzero;"/>
        <path d="M1409.45,953.797L1218.59,918.257C1214.76,917.543 1212.23,913.857 1212.94,910.024L1236.85,781.629C1237.57,777.796 1241.25,775.267 1245.09,775.98L1435.94,811.521C1439.78,812.234 1442.31,815.92 1441.59,819.754L1417.68,948.149C1416.97,951.982 1413.28,954.511 1409.45,953.797Z" style="fill:rgb(247,204,127);fill-rule:nonzero;"/>
        <path d="M1318.6,807.016L1260.5,796.197C1256.67,795.484 1254.14,791.798 1254.85,787.965L1258.49,768.428C1259.21,764.595 1262.89,762.065 1266.73,762.78L1324.82,773.598C1328.66,774.312 1331.18,777.998 1330.47,781.831L1326.83,801.368C1326.12,805.201 1322.43,807.729 1318.6,807.016Z" style="fill:rgb(247,204,127);fill-rule:nonzero;"/>
        <path d="M1418.14,948.887C1417.15,952.4 1413.64,954.578 1410.05,953.91L1217.95,918.138C1214.38,917.472 1211.89,914.203 1212.21,910.583L1222.26,795.49C1222.44,793.507 1223.44,791.688 1225.02,790.484C1226.61,789.279 1228.63,788.8 1230.59,789.164L1444,828.904C1445.95,829.267 1447.66,830.434 1448.7,832.119C1449.75,833.805 1450.04,835.853 1449.5,837.762L1418.14,948.887Z" style="fill:rgb(250,224,178);fill-rule:nonzero;"/>
        <path d="M1656.21,559.39L1451.11,632.553C1444.5,634.912 1437.23,631.464 1434.87,624.853L1397.02,518.728C1394.66,512.117 1398.11,504.845 1404.72,502.487L1609.82,429.324C1616.43,426.966 1623.7,430.413 1626.06,437.024L1663.91,543.149C1666.27,549.76 1662.83,557.031 1656.21,559.39Z" style="fill:rgb(134,177,242);fill-rule:nonzero;"/>
        <path d="M1520.27,532.111C1527.81,553.254 1516.79,576.508 1495.64,584.05C1474.5,591.593 1451.25,580.566 1443.7,559.424C1436.16,538.281 1447.19,515.027 1468.33,507.485C1489.47,499.942 1512.73,510.968 1520.27,532.111Z" style="fill:white;fill-rule:nonzero;"/>
        <path d="M1487.81,526.422C1490.04,532.657 1486.78,539.514 1480.55,541.738C1474.31,543.962 1467.46,540.711 1465.23,534.476C1463.01,528.241 1466.26,521.384 1472.5,519.16C1478.73,516.936 1485.59,520.188 1487.81,526.422Z" style="fill:rgb(134,177,242);fill-rule:nonzero;"/>
        <path d="M1507.34,559.845L1471.27,572.714L1469.82,568.665C1467.19,561.278 1471.04,553.153 1478.43,550.519L1487.75,547.192C1495.14,544.557 1503.26,548.409 1505.9,555.796L1507.34,559.845Z" style="fill:rgb(134,177,242);fill-rule:nonzero;"/>
        <path d="M1525.32,509.925C1523.14,509.925 1521.18,508.542 1520.44,506.483C1519.48,503.791 1520.89,500.819 1523.58,499.859L1613.24,467.876C1613.8,467.676 1614.39,467.574 1614.98,467.574C1617.17,467.574 1619.13,468.958 1619.86,471.017C1620.82,473.708 1619.42,476.68 1616.72,477.641L1527.07,509.624C1526.5,509.824 1525.92,509.925 1525.32,509.925Z" style="fill:white;fill-rule:nonzero;"/>
        <path d="M1549.53,532.276C1547.34,532.276 1545.38,530.893 1544.64,528.833C1543.68,526.141 1545.09,523.17 1547.79,522.209L1617.81,497.23C1618.37,497.03 1618.96,496.928 1619.55,496.928C1621.74,496.928 1623.7,498.312 1624.43,500.371C1624.9,501.675 1624.83,503.082 1624.24,504.333C1623.64,505.584 1622.6,506.529 1621.29,506.995L1551.27,531.974C1550.71,532.174 1550.12,532.276 1549.53,532.276Z" style="fill:white;fill-rule:nonzero;"/>
        <path d="M1974.89,1359.87L1479.65,1359.87C1464.27,1359.87 1451.81,1372.34 1451.81,1387.72L1451.81,1411.14C1451.81,1426.52 1464.27,1438.99 1479.65,1438.99L1974.89,1438.99L1974.63,1438.72C1953.45,1416.67 1953.56,1381.79 1974.89,1359.87Z" style="fill:rgb(244,116,88);fill-rule:nonzero;"/>
        <path d="M1966.13,1371.58L1701.38,1371.58C1686,1371.58 1673.53,1384.05 1673.53,1399.43C1673.53,1414.81 1686,1427.28 1701.38,1427.28L1966.12,1427.28C1956.39,1410.03 1956.4,1388.81 1966.13,1371.58Z" style="fill:rgb(250,224,178);fill-rule:nonzero;"/>
        <path d="M2030.97,460.248C2038.69,466.407 2052.12,486.227 2069.24,500.142C2079.26,508.28 2086.98,506.21 2099.77,507.756C2160.45,515.091 2144.01,527.495 2151.29,528.713C2149.22,533.47 2130.31,573.657 2126.78,581.779C2123.52,589.272 2117.89,592.625 2109.73,591.496C2097.18,589.761 2084.52,588.471 2072.16,585.792C2040.49,578.924 2022.87,563.084 2000.17,543.847C1994.15,538.743 1992.67,532.377 1995.79,525.164C2010.32,491.593 2029.4,463.338 2030.97,460.248Z" style="fill:rgb(70,110,182);fill-rule:nonzero;"/>
        <path d="M2157.86,577.057C2157.59,590.281 2158.6,592.935 2152.92,590.929C2149.5,589.722 2146.19,588.148 2142.96,586.482C2140.69,585.306 2140.6,583.755 2142.45,581.896C2145.14,579.191 2147.91,576.557 2150.6,573.931C2148.63,568.745 2150.89,562.708 2155.74,559.87C2156.73,559.29 2156.01,560.52 2164.46,541.07C2136.51,537.622 2116.79,535.309 2082.7,531.117C2073.59,529.996 2065.48,526.452 2058.43,520.554C2034.07,500.179 2009.72,479.802 1985.39,459.405C1982.09,456.638 1981.67,452.584 1984.29,449.464C1986.3,447.077 1988.95,446.963 1991.81,447.321C1999.59,448.296 2075.88,457.774 2083.63,458.68C2093.81,459.869 2102.77,463.703 2110.64,470.292C2134.56,490.326 2158.55,510.288 2182.5,530.285C2185.79,533.029 2186.68,535.547 2185.52,538.599C2184.25,541.952 2181.48,543.551 2177.3,542.647C2174.27,541.995 2172.94,542.907 2171.9,545.705C2167.2,558.354 2163.92,561.154 2165.05,565.772C2165.93,569.337 2161.69,575.508 2157.86,577.057Z" style="fill:rgb(134,177,242);fill-rule:nonzero;"/>
        <g transform="matrix(1,0,0,1,-90.1084,-725.61)">
            <path d="M2284.43,1475.39L2298.33,1488.65C2331.22,1520.02 2358.04,1557.18 2377.44,1598.27L2379.57,1602.78C2379.57,1602.78 2415.98,1606 2421.06,1573.08C2389.12,1537.02 2362.83,1498.51 2341.13,1455.68L2334.55,1440.29L2284.43,1475.39Z" style="fill:rgb(182,172,70);fill-rule:nonzero;"/>
        </g>
        <g transform="matrix(1,0,0,1,-38,-648)">
            <path d="M2334.57,1440.34L2334.53,1440.29C2334.53,1440.29 2306.81,1463.75 2295.39,1466.14L2298.92,1470.94C2303.09,1468.69 2307.83,1465.76 2312.7,1462.35C2326.38,1452.82 2336.07,1443.04 2334.57,1440.34Z" style="fill:rgb(53,83,137);fill-rule:nonzero;"/>
        </g>
        <g transform="matrix(1,0,0,1,-78,-712)">
            <path d="M2343.67,1532.07L2300.93,1530.54L2311.06,1539.14L2305.01,1550.12L2345.46,1539.81L2343.67,1532.07Z" style="fill:rgb(183,87,66);fill-rule:nonzero;"/>
        </g>
        <g transform="matrix(1,0,0,1,-80,-722)">
            <path d="M2347.56,1542.01L2332.38,1568.46L2343.06,1564.4L2347.17,1572.8L2354.31,1544.98L2347.56,1542.01Z" style="fill:rgb(183,87,66);fill-rule:nonzero;"/>
        </g>
        <path d="M1264.55,602.494L1273.85,620.896L1294.87,620.217L1303.84,641.583L1326,633.956L1337.21,657.672L1358.48,653.165L1372.99,674.22L1365.02,679.713L1354.17,663.971L1331.72,668.727L1320.95,645.93L1298.42,653.685L1288.52,630.106L1268,630.77L1259.37,613.713L1245.99,616.968L1243.7,607.563L1264.55,602.494Z" style="fill:rgb(247,134,127);fill-rule:nonzero;"/>
        <g transform="matrix(1,0,0,1,-976.965,-33.1978)">
            <path d="M2390.1,1073.27L2409.2,1081.03L2424.6,1066.71L2445.4,1076.93L2457.1,1056.62L2481.13,1067.14L2494.21,1049.77L2518.98,1056.11L2516.58,1065.48L2498.06,1060.75L2484.26,1079.08L2461.16,1068.97L2449.26,1089.62L2426.31,1078.34L2411.27,1092.32L2393.57,1085.13L2385.61,1096.38L2377.71,1090.79L2390.1,1073.27Z" style="fill:rgb(80,191,165);fill-rule:nonzero;"/>
        </g>
    </g>
</svg>
